<?xml version="1.0" encoding="UTF-8" standalone="no"?>
<!-- Created with Inkscape (http://www.inkscape.org/) -->

<svg
   xmlns:dc="http://purl.org/dc/elements/1.1/"
   xmlns:cc="http://creativecommons.org/ns#"
   xmlns:rdf="http://www.w3.org/1999/02/22-rdf-syntax-ns#"
   xmlns:svg="http://www.w3.org/2000/svg"
   xmlns="http://www.w3.org/2000/svg"
   xmlns:sodipodi="http://sodipodi.sourceforge.net/DTD/sodipodi-0.dtd"
   xmlns:inkscape="http://www.inkscape.org/namespaces/inkscape"
   width="800mm"
   height="600mm"
   viewBox="0 0 2834.6457 2125.9842"
   id="svg2"
   version="1.1"
   inkscape:version="0.92.4 (5da689c313, 2019-01-14)"
   sodipodi:docname="evolutive-architecture-2.svg">
  <defs
     id="defs4">
    <marker
       inkscape:stockid="Arrow1Mend"
       orient="auto"
       refY="0"
       refX="0"
       id="Arrow1Mend"
       style="overflow:visible"
       inkscape:isstock="true">
      <path
         id="path4420"
         d="M 0,0 5,-5 -12.5,0 5,5 Z"
         style="fill:#00bff0;fill-opacity:1;fill-rule:evenodd;stroke:#00bff0;stroke-width:1.00000003pt;stroke-opacity:1"
         transform="matrix(-0.4,0,0,-0.4,-4,0)"
         inkscape:connector-curvature="0" />
    </marker>
    <linearGradient
       id="b"
       y2="1.85"
       x2="57.903"
       y1="1.85"
       x1="57.903"
       gradientTransform="scale(0)"
       gradientUnits="userSpaceOnUse">
      <stop
         id="stop4879"
         offset="0%"
         stop-color="#41873F" />
      <stop
         id="stop4881"
         offset="32.88%"
         stop-color="#418B3D" />
      <stop
         id="stop4883"
         offset="63.52%"
         stop-color="#419637" />
      <stop
         id="stop4885"
         offset="93.19%"
         stop-color="#3FA92D" />
      <stop
         id="stop4887"
         offset="100%"
         stop-color="#3FAE2A" />
    </linearGradient>
    <path
       d="m 57.903,1.85 a 5.957,5.957 0 0 0 -5.894,0 L 3.352,29.933 c -1.85,1.04 -2.89,3.005 -2.89,5.085 v 56.286 c 0,2.08 1.156,4.045 2.89,5.085 l 48.657,28.085 a 5.957,5.957 0 0 0 5.894,0 l 48.658,-28.085 c 1.849,-1.04 2.89,-3.005 2.89,-5.085 V 35.019 c 0,-2.08 -1.157,-4.045 -2.89,-5.085 z"
       id="a"
       inkscape:connector-curvature="0" />
    <linearGradient
       id="d"
       y2="-4.3421721"
       x2="102.80521"
       y1="22.882973"
       x1="59.834877"
       gradientTransform="scale(1.3193853,0.75792869)"
       gradientUnits="userSpaceOnUse">
      <stop
         id="stop4891"
         offset="13.76%"
         stop-color="#41873F" />
      <stop
         id="stop4893"
         offset="40.32%"
         stop-color="#54A044" />
      <stop
         id="stop4895"
         offset="71.36%"
         stop-color="#66B848" />
      <stop
         id="stop4897"
         offset="90.81%"
         stop-color="#6CC04A" />
    </linearGradient>
    <linearGradient
       id="e"
       y2="1.3961854"
       x2="60.624519"
       y1="1.3961854"
       x1="5.4630942"
       gradientTransform="scale(1.6318162,0.6128141)"
       gradientUnits="userSpaceOnUse">
      <stop
         id="stop4900"
         offset="9.192%"
         stop-color="#6CC04A" />
      <stop
         id="stop4902"
         offset="28.64%"
         stop-color="#66B848" />
      <stop
         id="stop4904"
         offset="59.68%"
         stop-color="#54A044" />
      <stop
         id="stop4906"
         offset="86.24%"
         stop-color="#41873F" />
    </linearGradient>
    <linearGradient
       id="f"
       y2="66.989662"
       x2="120.27905"
       y1="66.989662"
       x1="-1.4223322"
       gradientTransform="scale(0.92514783,1.0809083)"
       gradientUnits="userSpaceOnUse">
      <stop
         id="stop4909"
         offset="9.192%"
         stop-color="#6CC04A" />
      <stop
         id="stop4911"
         offset="28.64%"
         stop-color="#66B848" />
      <stop
         id="stop4913"
         offset="59.68%"
         stop-color="#54A044" />
      <stop
         id="stop4915"
         offset="86.24%"
         stop-color="#41873F" />
    </linearGradient>
    <linearGradient
       id="g"
       y2="68.39164"
       x2="169.56171"
       y1="68.39164"
       x1="117.94696"
       gradientTransform="scale(0.65492335,1.5268962)"
       gradientUnits="userSpaceOnUse">
      <stop
         id="stop4918"
         offset="9.192%"
         stop-color="#6CC04A" />
      <stop
         id="stop4920"
         offset="28.64%"
         stop-color="#66B848" />
      <stop
         id="stop4922"
         offset="59.68%"
         stop-color="#54A044" />
      <stop
         id="stop4924"
         offset="86.24%"
         stop-color="#41873F" />
    </linearGradient>
    <linearGradient
       id="h"
       y2="157.8152"
       x2="81.332504"
       y1="157.8152"
       x1="5.5872092"
       gradientTransform="scale(1.3178092,0.75883522)"
       gradientUnits="userSpaceOnUse">
      <stop
         id="stop4927"
         offset="9.192%"
         stop-color="#6CC04A" />
      <stop
         id="stop4929"
         offset="28.64%"
         stop-color="#66B848" />
      <stop
         id="stop4931"
         offset="59.68%"
         stop-color="#54A044" />
      <stop
         id="stop4933"
         offset="86.24%"
         stop-color="#41873F" />
    </linearGradient>
    <linearGradient
       id="i"
       y2="213.82344"
       x2="45.65274"
       y1="61.090031"
       x1="92.367607"
       gradientTransform="scale(1.3178092,0.75883522)"
       gradientUnits="userSpaceOnUse">
      <stop
         id="stop4936"
         offset="0%"
         stop-color="#41873F" />
      <stop
         id="stop4938"
         offset="32.88%"
         stop-color="#418B3D" />
      <stop
         id="stop4940"
         offset="63.52%"
         stop-color="#419637" />
      <stop
         id="stop4942"
         offset="93.19%"
         stop-color="#3FA92D" />
      <stop
         id="stop4944"
         offset="100%"
         stop-color="#3FAE2A" />
    </linearGradient>
    <path
       inkscape:connector-curvature="0"
       id="a-8"
       d="m 57.903,1.85 a 5.957,5.957 0 0 0 -5.894,0 L 3.352,29.933 c -1.85,1.04 -2.89,3.005 -2.89,5.085 v 56.286 c 0,2.08 1.156,4.045 2.89,5.085 l 48.657,28.085 a 5.957,5.957 0 0 0 5.894,0 l 48.658,-28.085 c 1.849,-1.04 2.89,-3.005 2.89,-5.085 V 35.019 c 0,-2.08 -1.157,-4.045 -2.89,-5.085 z" />
    <linearGradient
       x1="93.627998"
       y1="24.229"
       gradientTransform="matrix(0.9973,-0.0732,0.0732,0.9973,-6.3155,6.9983)"
       x2="93.627998"
       gradientUnits="userSpaceOnUse"
       y2="122.5"
       id="SVGID_1_">
      <stop
         id="stop9977"
         offset="0"
         style="stop-color:#C56FB4" />
      <stop
         id="stop9979"
         offset="1"
         style="stop-color:#9C2683" />
    </linearGradient>
    <linearGradient
       x1="123.84"
       y1="53.573002"
       x2="123.84"
       gradientUnits="userSpaceOnUse"
       y2="151.85001"
       id="SVGID_2_"
       gradientTransform="matrix(0.9375,0,0,0.9375,1331.7613,575.3704)">
      <stop
         id="stop9986"
         offset="0"
         style="stop-color:#8BC53F" />
      <stop
         id="stop9988"
         offset="1"
         style="stop-color:#6C9C31" />
    </linearGradient>
    <clipPath
       id="clipPath3927">
      <path
         id="path3929"
         style="fill:none;stroke:#ffffff;stroke-width:103.87999725"
         d="m 1486.1,1425.8 a 1043.75,1033.8495 0 1 1 -2087.5,0 1043.75,1033.8495 0 1 1 2087.5,0 z"
         transform="matrix(0.89346,0,0,-0.90205,632.34,2313.7)"
         inkscape:connector-curvature="0" />
    </clipPath>
    <linearGradient
       gradientUnits="userSpaceOnUse"
       gradientTransform="scale(0.80536275,1.2416765)"
       x1="167.51685"
       y1="24.393208"
       x2="160.31"
       y2="320.03421"
       id="linearGradient-1">
      <stop
         stop-color="#D9D8DC"
         offset="0%"
         id="stop1963" />
      <stop
         stop-color="#FFFFFF"
         stop-opacity="0.385275136"
         offset="100%"
         id="stop1965" />
    </linearGradient>
    <linearGradient
       gradientUnits="userSpaceOnUse"
       gradientTransform="scale(0.70913123,1.4101762)"
       x1="199.03606"
       y1="21.412943"
       x2="140.0712"
       y2="278.40781"
       id="linearGradient-2">
      <stop
         stop-color="#8D67AF"
         stop-opacity="0.671931612"
         offset="0%"
         id="stop1968" />
      <stop
         stop-color="#9F8DAF"
         offset="100%"
         id="stop1970" />
    </linearGradient>
    <linearGradient
       gradientUnits="userSpaceOnUse"
       gradientTransform="scale(0.76164467,1.3129482)"
       x1="206.42825"
       y1="100.91758"
       x2="206.42825"
       y2="294.31174"
       id="linearGradient-3">
      <stop
         stop-color="#26053D"
         stop-opacity="0.761633832"
         offset="0%"
         id="stop1973" />
      <stop
         stop-color="#B7B4B4"
         stop-opacity="0.277683424"
         offset="100%"
         id="stop1975" />
    </linearGradient>
    <linearGradient
       gradientUnits="userSpaceOnUse"
       gradientTransform="scale(1.1473049,0.87160792)"
       x1="23.483095"
       y1="171.71753"
       x2="112.93068"
       y2="351.72263"
       id="linearGradient-4">
      <stop
         stop-color="#91739F"
         stop-opacity="0.459550498"
         offset="0%"
         id="stop1978" />
      <stop
         stop-color="#32054F"
         stop-opacity="0.539911685"
         offset="100%"
         id="stop1980" />
    </linearGradient>
    <linearGradient
       gradientUnits="userSpaceOnUse"
       gradientTransform="scale(0.88068721,1.1354769)"
       x1="226.7811"
       y1="317.25201"
       x2="67.803513"
       y2="147.4131"
       id="linearGradient-5">
      <stop
         stop-color="#463D49"
         stop-opacity="0.331182065"
         offset="0%"
         id="stop1983" />
      <stop
         stop-color="#340A50"
         stop-opacity="0.821388134"
         offset="100%"
         id="stop1985" />
    </linearGradient>
    <linearGradient
       gradientUnits="userSpaceOnUse"
       gradientTransform="scale(0.65796714,1.5198327)"
       x1="248.0164"
       y1="88.755203"
       x2="200.70529"
       y2="255.00511"
       id="linearGradient-6">
      <stop
         stop-color="#715383"
         stop-opacity="0.145238904"
         offset="0%"
         id="stop1988" />
      <stop
         stop-color="#F4F4F4"
         stop-opacity="0.23363904"
         offset="100%"
         id="stop1990" />
    </linearGradient>
    <linearGradient
       gradientUnits="userSpaceOnUse"
       gradientTransform="scale(0.5695618,1.7557357)"
       x1="307.5639"
       y1="109.963"
       x2="156.45103"
       y2="81.526764"
       id="linearGradient-7">
      <stop
         stop-color="#A5A1A8"
         stop-opacity="0.356091486"
         offset="0%"
         id="stop1993" />
      <stop
         stop-color="#370C50"
         stop-opacity="0.581974638"
         offset="100%"
         id="stop1995" />
    </linearGradient>
    <clipPath
       id="p.0">
      <path
         style="clip-rule:nonzero"
         inkscape:connector-curvature="0"
         d="M 0,0 H 437 V 487 H 0 Z"
         id="path19598" />
    </clipPath>
  </defs>
  <sodipodi:namedview
     id="base"
     pagecolor="#dacfe5"
     bordercolor="#666666"
     borderopacity="1.0"
     inkscape:pageopacity="1"
     inkscape:pageshadow="2"
     inkscape:zoom="0.13"
     inkscape:cx="1770.5402"
     inkscape:cy="1104.3001"
     inkscape:document-units="px"
     inkscape:current-layer="layer1"
     showgrid="false"
     inkscape:window-width="1600"
     inkscape:window-height="839"
     inkscape:window-x="0"
     inkscape:window-y="27"
     inkscape:window-maximized="1"
     fit-margin-top="0"
     fit-margin-left="0"
     fit-margin-right="0"
     fit-margin-bottom="0"
     showguides="true"
     inkscape:guide-bbox="true" />
  <metadata
     id="metadata7">
    <rdf:RDF>
      <cc:Work
         rdf:about="">
        <dc:format>image/svg+xml</dc:format>
        <dc:type
           rdf:resource="http://purl.org/dc/dcmitype/StillImage" />
        <dc:title></dc:title>
      </cc:Work>
    </rdf:RDF>
  </metadata>
  <g
     inkscape:label="Calque 1"
     inkscape:groupmode="layer"
     id="layer1"
     transform="translate(-1409.7967,1126.924)">
    <text
       xml:space="preserve"
       style="font-style:normal;font-weight:normal;font-size:20.4382515px;line-height:125%;font-family:sans-serif;letter-spacing:0px;word-spacing:0px;fill:#544568;fill-opacity:1;stroke:none;stroke-width:0.51095629px;stroke-linecap:butt;stroke-linejoin:miter;stroke-opacity:1"
       x="1835.5022"
       y="547.96832"
       id="text1704"><tspan
         sodipodi:role="line"
         id="tspan1702"
         x="1835.5022"
         y="566.05139"
         style="fill:#544568;fill-opacity:1;stroke-width:0.51095629px" /></text>
    <text
       xml:space="preserve"
       style="font-style:normal;font-weight:normal;font-size:20.4382515px;line-height:1.25;font-family:sans-serif;letter-spacing:0px;word-spacing:0px;fill:#544568;fill-opacity:1;stroke:none;stroke-width:0.51095629"
       x="2398.0229"
       y="-91.708244"
       id="text2626"><tspan
         sodipodi:role="line"
         id="tspan2624"
         x="2398.0229"
         y="-73.625183"
         style="fill:#544568;fill-opacity:1;stroke-width:0.51095629" /></text>
    <text
       xml:space="preserve"
       style="font-style:normal;font-variant:normal;font-weight:bold;font-stretch:normal;font-size:67.34164429px;line-height:1.25;font-family:'Courier 10 Pitch';-inkscape-font-specification:'Courier 10 Pitch Bold';text-align:center;letter-spacing:0px;word-spacing:0px;text-anchor:middle;fill:#544568;fill-opacity:1;stroke:none;stroke-width:1.68354082"
       x="2858.5493"
       y="-870.51239"
       id="text1545"><tspan
         sodipodi:role="line"
         x="2858.5493"
         y="-870.51239"
         style="font-style:normal;font-variant:normal;font-weight:bold;font-stretch:normal;font-size:250px;font-family:'Courier 10 Pitch';-inkscape-font-specification:'Courier 10 Pitch Bold';text-align:center;text-anchor:middle;fill:#544568;fill-opacity:1;stroke-width:1.68354082"
         id="tspan20274">Evolutionary</tspan><tspan
         sodipodi:role="line"
         x="2858.5493"
         y="-558.01239"
         style="font-style:normal;font-variant:normal;font-weight:bold;font-stretch:normal;font-size:250px;font-family:'Courier 10 Pitch';-inkscape-font-specification:'Courier 10 Pitch Bold';text-align:center;text-anchor:middle;fill:#544568;fill-opacity:1;stroke-width:1.68354082"
         id="tspan20278">architecture</tspan><tspan
         sodipodi:role="line"
         x="2858.5493"
         y="-403.33292"
         style="font-style:normal;font-variant:normal;font-weight:bold;font-stretch:normal;font-size:323.23983765px;font-family:'Courier 10 Pitch';-inkscape-font-specification:'Courier 10 Pitch Bold';text-align:center;text-anchor:middle;fill:#544568;fill-opacity:1;stroke-width:1.68354082"
         id="tspan15234" /></text>
    <flowRoot
       xml:space="preserve"
       id="flowRoot1547"
       style="font-style:normal;font-variant:normal;font-weight:normal;font-stretch:normal;font-size:40px;line-height:1.25;font-family:serif;-inkscape-font-specification:serif;letter-spacing:0px;word-spacing:0px;fill:#544568;fill-opacity:1;stroke:none"
       transform="matrix(0.51095625,0,0,0.51095625,1391.4395,-323.02658)"><flowRegion
         id="flowRegion1549"
         style="fill:#544568;fill-opacity:1"><rect
           id="rect1551"
           width="297.17355"
           height="77.947159"
           x="462.81128"
           y="567.49408"
           style="fill:#544568;fill-opacity:1" /></flowRegion><flowPara
         id="flowPara1553" /></flowRoot>    <flowRoot
       xml:space="preserve"
       id="flowRoot1559"
       style="font-style:normal;font-variant:normal;font-weight:normal;font-stretch:normal;font-size:40px;line-height:1.25;font-family:serif;-inkscape-font-specification:serif;letter-spacing:0px;word-spacing:0px;fill:#544568;fill-opacity:1;stroke:none"
       transform="matrix(0.54502,0,0,0.54502,1016.1151,278.99102)"><flowRegion
         id="flowRegion1561"
         style="fill:#544568;fill-opacity:1"><rect
           id="rect1563"
           width="925.62256"
           height="516.39996"
           x="1081.5168"
           y="431.08655"
           style="fill:#544568;fill-opacity:1" /></flowRegion><flowPara
         id="flowPara1565" /></flowRoot>    <flowRoot
       xml:space="preserve"
       id="flowRoot1787"
       style="font-style:normal;font-variant:normal;font-weight:normal;font-stretch:normal;font-size:40px;line-height:1.25;font-family:serif;-inkscape-font-specification:serif;letter-spacing:0px;word-spacing:0px;fill:#000000;fill-opacity:1;stroke:none"
       transform="matrix(0.54502,0,0,0.54502,1016.1151,278.99102)"><flowRegion
         id="flowRegion1789"><rect
           id="rect1791"
           width="1096.132"
           height="297.17355"
           x="906.13574"
           y="1585.6788" /></flowRegion><flowPara
         id="flowPara1793" /></flowRoot>    <text
       xml:space="preserve"
       style="font-style:normal;font-variant:normal;font-weight:normal;font-stretch:normal;font-size:37.5px;line-height:1.25;font-family:serif;-inkscape-font-specification:serif;letter-spacing:0px;word-spacing:0px;fill:#000000;fill-opacity:1;stroke:none;stroke-width:0.9375"
       x="2650.1814"
       y="-133.15135"
       id="text16609"><tspan
         sodipodi:role="line"
         id="tspan16607"
         x="2650.1814"
         y="-99.972641"
         style="stroke-width:0.9375" /><tspan
         sodipodi:role="line"
         x="2650.1814"
         y="-53.097641"
         style="stroke-width:0.9375"
         id="tspan16611" /></text>
    <text
       xml:space="preserve"
       style="font-style:normal;font-variant:normal;font-weight:bold;font-stretch:normal;font-size:51.94751358px;line-height:1.25;font-family:'Courier 10 Pitch';-inkscape-font-specification:'Courier 10 Pitch Bold';text-align:center;letter-spacing:0px;word-spacing:0px;text-anchor:middle;fill:#544568;fill-opacity:1;stroke:none;stroke-width:1.29868746"
       x="2583.1775"
       y="-183.04518"
       id="text1545-6"><tspan
         sodipodi:role="line"
         x="2583.1775"
         y="-183.04518"
         style="font-style:italic;font-variant:normal;font-weight:normal;font-stretch:normal;font-size:130.17416382px;font-family:'Courier 10 Pitch';-inkscape-font-specification:'Courier 10 Pitch Italic';text-align:center;text-anchor:middle;fill:#544568;fill-opacity:1;stroke-width:1.29868746"
         id="tspan20137">How is long-term planning</tspan><tspan
         sodipodi:role="line"
         x="2583.1775"
         y="-20.327475"
         style="font-style:italic;font-variant:normal;font-weight:normal;font-stretch:normal;font-size:130.17416382px;font-family:'Courier 10 Pitch';-inkscape-font-specification:'Courier 10 Pitch Italic';text-align:center;text-anchor:middle;fill:#544568;fill-opacity:1;stroke-width:1.29868746"
         id="tspan21997"> possible when everything</tspan><tspan
         sodipodi:role="line"
         x="2583.1775"
         y="142.39023"
         style="font-style:italic;font-variant:normal;font-weight:normal;font-stretch:normal;font-size:130.17416382px;font-family:'Courier 10 Pitch';-inkscape-font-specification:'Courier 10 Pitch Italic';text-align:center;text-anchor:middle;fill:#544568;fill-opacity:1;stroke-width:1.29868746"
         id="tspan21999">changes all the time ?</tspan><tspan
         sodipodi:role="line"
         x="2583.1775"
         y="237.1862"
         style="font-style:italic;font-variant:normal;font-weight:normal;font-stretch:normal;font-size:130.17416382px;font-family:'Courier 10 Pitch';-inkscape-font-specification:'Courier 10 Pitch Italic';text-align:center;text-anchor:middle;fill:#544568;fill-opacity:1;stroke-width:1.29868746"
         id="tspan15234-0" /></text>
    <text
       xml:space="preserve"
       style="font-style:normal;font-variant:normal;font-weight:normal;font-stretch:normal;font-size:37.5px;line-height:1.25;font-family:serif;-inkscape-font-specification:serif;letter-spacing:0px;word-spacing:0px;fill:#000000;fill-opacity:1;stroke:none;stroke-width:0.9375"
       x="1741.5275"
       y="97.617958"
       id="text20141"><tspan
         sodipodi:role="line"
         id="tspan20139"
         x="1741.5275"
         y="130.79666"
         style="stroke-width:0.9375" /></text>
    <g
       id="g53364"
       transform="matrix(1.2352552,0,0,1.2352552,3742.8324,-381.22292)"
       style="fill:none;fill-rule:evenodd">
      <path
         id="path53332"
         d="m 38.617,173.984 v -16.362 c 0,-2.15 1.344,-3.877 3.57,-3.877 h 0.616 c 2.225,0 3.563,1.729 3.563,3.877 v 34.447 c 0,8.4 -4.15,15.084 -11.382,19.342 a 21.374,21.374 0 0 1 -10.945,2.985 h -1.537 c -8.402,0 -15.077,-4.153 -19.342,-11.38 A 21.314,21.314 0 0 1 0.176,192.069 v -1.535 c 0,-8.403 4.152,-15.083 11.378,-19.349 A 21.298,21.298 0 0 1 22.502,168.2 h 1.537 c 5.686,0 10.51,2.204 14.578,5.784 z M 7.924,191.3 c 0,6.068 2.941,10.63 8.258,13.54 2.15,1.176 4.484,1.808 6.937,1.808 5.956,0 10.374,-2.81 13.421,-7.857 1.417,-2.348 2.077,-4.917 2.077,-7.648 0,-5.26 -2.49,-9.365 -6.729,-12.414 -2.57,-1.848 -5.463,-2.775 -8.618,-2.775 -6.492,0 -11.164,3.28 -13.968,9.106 -0.946,1.97 -1.378,4.061 -1.378,6.24 z m 65.324,-23.1 h 1.074 c 8.978,0 15.806,4.355 20.133,12.192 1.73,3.135 2.656,6.557 2.656,10.142 v 1.535 c 0,8.4 -4.142,15.093 -11.385,19.343 -3.353,1.967 -7.057,2.984 -10.943,2.984 h -1.535 c -8.402,0 -15.079,-4.153 -19.342,-11.38 a 21.316,21.316 0 0 1 -2.987,-10.947 v -1.535 c 0,-8.404 4.169,-15.062 11.377,-19.347 3.351,-1.991 7.058,-2.987 10.952,-2.987 z m -14.58,23.1 c 0,5.89 2.89,10.223 7.865,13.27 2.336,1.43 4.909,2.078 7.638,2.078 5.82,0 10.122,-2.951 13.116,-7.863 1.428,-2.342 2.074,-4.915 2.074,-7.642 0,-5.477 -2.638,-9.661 -7.148,-12.693 -2.471,-1.663 -5.222,-2.496 -8.198,-2.496 -6.492,0 -11.164,3.28 -13.967,9.106 -0.948,1.97 -1.38,4.061 -1.38,6.24 z m 70.656,-14.727 c -1.17,-0.548 -3.36,-0.73 -4.624,-0.778 -6.474,-0.244 -11.158,3.402 -13.906,9.113 -0.949,1.97 -1.382,4.055 -1.382,6.235 0,6.637 3.485,11.284 9.409,14.117 2.164,1.034 4.958,1.23 7.323,1.23 2.08,0 5.02,-1.274 6.866,-2.151 l 0.32,-0.152 h 1.433 l 0.158,0.032 c 1.762,0.367 3.092,1.484 3.092,3.38 v 0.767 c 0,4.718 -8.622,5.798 -11.912,6.028 -11.61,0.803 -20.293,-5.573 -23.603,-16.647 -0.575,-1.923 -0.834,-3.833 -0.834,-5.837 v -1.533 c 0,-8.403 4.17,-15.059 11.377,-19.34 3.351,-1.99 7.057,-2.99 10.95,-2.99 h 1.536 c 4.13,0 7.934,1.173 11.344,3.502 l 0.28,0.194 0.177,0.292 c 0.368,0.61 0.685,1.316 0.685,2.042 v 0.767 c 0,1.978 -1.48,3.042 -3.266,3.386 l -0.148,0.026 h -0.458 c -1.156,0 -3.785,-1.197 -4.817,-1.683 z m 25.134,5.247 c 3.01,-3.014 6.03,-6.022 9.085,-8.986 0.851,-0.827 4.074,-4.327 5.343,-4.327 h 1.388 l 0.158,0.033 c 1.768,0.367 3.092,1.486 3.092,3.386 v 0.766 c 0,1.296 -1.518,2.802 -2.355,3.689 -1.78,1.887 -3.654,3.712 -5.476,5.56 l -9.362,9.504 c 4.031,4.04 8.058,8.083 12.056,12.154 a 313.304,313.304 0 0 1 3.301,3.396 c 0.385,0.405 0.953,0.909 1.276,1.47 0.347,0.526 0.56,1.119 0.56,1.752 v 0.8 l -0.045,0.185 c -0.435,1.768 -1.557,3.194 -3.516,3.194 h -0.617 c -1.282,0 -2.73,-1.45 -3.608,-2.279 -1.81,-1.706 -3.557,-3.5 -5.331,-5.243 l -5.949,-5.84 v 9.334 c 0,2.15 -1.346,3.878 -3.569,3.878 h -0.61 c -2.226,0 -3.57,-1.728 -3.57,-3.878 v -52.596 c 0,-2.15 1.345,-3.87 3.57,-3.87 h 0.61 c 2.223,0 3.569,1.72 3.569,3.87 z m 96.577,-13.313 h 0.77 c 2.324,0 3.875,1.566 3.875,3.877 0,3.208 -3.067,4.029 -5.72,4.029 -3.48,0 -6.803,2.107 -9.202,4.47 -2.991,2.949 -4.3,6.726 -4.3,10.878 v 18.759 c 0,2.15 -1.343,3.876 -3.57,3.876 h -0.612 c -2.227,0 -3.569,-1.725 -3.569,-3.876 v -19.836 c 0,-7.617 3.708,-13.835 9.89,-18.196 3.691,-2.605 7.919,-3.98 12.438,-3.98 z m -55.074,37.176 c 2.82,0.985 6.035,0.844 8.928,0.34 1.48,-0.629 5.264,-2.28 6.656,-2.038 l 0.217,0.037 0.2,0.098 c 0.85,0.412 1.661,0.995 2.095,1.86 1.014,2.027 0.527,4.065 -1.465,5.216 l -0.663,0.383 c -7.35,4.242 -15.168,3.654 -22.495,-0.308 -3.503,-1.894 -6.183,-4.705 -8.16,-8.132 l -0.462,-0.801 c -4.719,-8.172 -4.082,-16.768 1.24,-24.539 1.837,-2.686 4.238,-4.761 7.045,-6.384 l 1.062,-0.613 c 6.922,-3.996 14.341,-3.722 21.45,-0.215 3.823,1.886 6.92,4.697 9.054,8.394 l 0.384,0.666 c 1.55,2.686 -0.458,5.026 -2.531,6.626 -2.406,1.856 -4.835,4.09 -7.141,6.08 -5.142,4.439 -10.276,8.888 -15.414,13.33 z m -6.655,-4.674 c 5.75,-4.93 11.502,-9.865 17.237,-14.816 1.96,-1.69 4.109,-3.444 6.053,-5.221 -1.56,-1.966 -4.166,-3.383 -6.38,-4.228 -4.47,-1.703 -8.877,-1.131 -12.976,1.235 -5.365,3.098 -7.65,8.031 -7.45,14.17 0.08,2.418 0.73,4.748 2.013,6.805 0.452,0.725 0.957,1.406 1.503,2.055 z M 147.488,45.732 h 22.866 v 23.375 h 11.561 c 5.34,0 10.831,-0.951 15.887,-2.664 2.485,-0.843 5.273,-2.015 7.724,-3.49 -3.228,-4.214 -4.876,-9.535 -5.36,-14.78 -0.66,-7.135 0.78,-16.421 5.608,-22.005 l 2.404,-2.78 2.864,2.303 c 7.211,5.793 13.276,13.889 14.345,23.118 8.683,-2.554 18.878,-1.95 26.531,2.467 l 3.14,1.812 -1.652,3.226 C 246.933,68.946 233.4,72.86 220.17,72.167 c -19.797,49.309 -62.898,72.653 -115.157,72.653 -27,0 -51.77,-10.093 -65.876,-34.047 l -0.231,-0.39 -2.055,-4.182 C 32.083,95.657 30.499,84.106 31.573,72.564 l 0.323,-3.457 H 51.45 V 45.732 H 74.315 V 22.866 h 45.733 V 0 h 27.44 v 45.732"
         inkscape:connector-curvature="0"
         style="fill:#364548" />
      <path
         id="path53334"
         d="m 221.57,54.38 c 1.533,-11.916 -7.384,-21.275 -12.914,-25.719 -6.373,7.368 -7.363,26.678 2.635,34.808 -5.58,4.956 -17.337,9.448 -29.376,9.448 H 35.37 c -1.17,12.567 1.036,24.14 6.075,34.045 l 1.667,3.05 a 56.536,56.536 0 0 0 3.455,5.184 c 6.025,0.387 11.58,0.52 16.662,0.408 h 0.002 c 9.987,-0.22 18.136,-1.4 24.312,-3.54 a 1.761,1.761 0 0 1 1.153,3.326 c -0.822,0.286 -1.678,0.552 -2.562,0.805 h -0.003 c -4.863,1.389 -10.078,2.323 -16.806,2.738 0.4,0.007 -0.416,0.06 -0.418,0.06 -0.229,0.015 -0.517,0.048 -0.747,0.06 -2.648,0.149 -5.506,0.18 -8.428,0.18 -3.196,0 -6.343,-0.06 -9.862,-0.24 l -0.09,0.06 c 12.21,13.724 31.302,21.955 55.234,21.955 50.648,0 93.608,-22.452 112.632,-72.857 13.496,1.385 26.467,-2.057 32.367,-13.575 -9.398,-5.423 -21.484,-3.694 -28.443,-0.196"
         inkscape:connector-curvature="0"
         style="fill:#22a0c8" />
      <path
         id="path53336"
         d="m 221.57,54.38 c 1.533,-11.916 -7.384,-21.275 -12.914,-25.719 -6.373,7.368 -7.363,26.678 2.635,34.808 -5.58,4.956 -17.337,9.448 -29.376,9.448 H 44.048 c -0.598,19.246 6.544,33.855 19.18,42.687 h 0.003 c 9.987,-0.22 18.136,-1.4 24.312,-3.54 a 1.761,1.761 0 0 1 1.153,3.326 c -0.822,0.286 -1.678,0.552 -2.562,0.805 h -0.003 c -4.863,1.389 -10.526,2.443 -17.254,2.858 -0.002,0 -0.163,-0.155 -0.165,-0.155 17.237,8.842 42.23,8.81 70.885,-2.197 32.13,-12.344 62.029,-35.86 82.89,-62.757 -0.314,0.142 -0.62,0.287 -0.917,0.436"
         inkscape:connector-curvature="0"
         style="fill:#37b1d9" />
      <path
         id="path53338"
         d="m 35.645,88.186 c 0.91,6.732 2.88,13.035 5.8,18.776 l 1.667,3.05 a 56.432,56.432 0 0 0 3.455,5.184 c 6.026,0.387 11.581,0.52 16.664,0.408 9.987,-0.22 18.136,-1.4 24.312,-3.54 a 1.761,1.761 0 0 1 1.153,3.326 c -0.822,0.286 -1.678,0.552 -2.562,0.805 h -0.003 c -4.863,1.389 -10.496,2.383 -17.224,2.799 -0.231,0.014 -0.634,0.017 -0.867,0.03 -2.646,0.148 -5.475,0.239 -8.398,0.239 -3.195,0 -6.463,-0.061 -9.98,-0.24 12.21,13.724 31.42,21.985 55.352,21.985 43.36,0 81.084,-16.458 102.979,-52.822 H 35.645"
         inkscape:connector-curvature="0"
         style="fill:#1b81a5" />
      <path
         id="path53340"
         d="m 45.367,88.186 c 2.592,11.82 8.821,21.099 17.864,27.418 9.987,-0.22 18.136,-1.4 24.312,-3.54 a 1.761,1.761 0 0 1 1.153,3.326 c -0.822,0.286 -1.678,0.552 -2.562,0.805 h -0.003 c -4.863,1.389 -10.615,2.383 -17.344,2.799 17.236,8.84 42.157,8.713 70.81,-2.293 17.334,-6.66 34.017,-16.574 48.984,-28.515 H 45.367"
         inkscape:connector-curvature="0"
         style="fill:#1d91b4" />
      <path
         id="path53342"
         d="M 55.26,49.543 H 75.078 V 69.361 H 55.26 Z m 1.651,1.652 h 1.564 V 67.71 h -1.564 z m 2.94,0 h 1.627 V 67.71 H 59.852 V 51.195 Z m 3.002,0 H 64.48 V 67.71 h -1.627 z m 3.004,0 h 1.626 V 67.71 h -1.626 z m 3.003,0 h 1.626 V 67.71 H 68.86 Z m 3.002,0 h 1.565 V 67.71 H 71.862 Z M 78.126,26.677 H 97.945 V 46.494 H 78.125 V 26.677 Z m 1.652,1.652 h 1.563 v 16.514 h -1.563 z m 2.94,0 h 1.626 V 44.843 H 82.719 V 28.329 Z m 3.002,0 h 1.626 V 44.843 H 85.72 Z m 3.003,0 h 1.626 v 16.514 h -1.626 z m 3.003,0 h 1.627 v 16.514 h -1.627 z m 3.002,0 h 1.566 v 16.514 h -1.566 z"
         inkscape:connector-curvature="0"
         style="fill:#23a3c2" />
      <path
         id="path53344"
         d="M 78.126,49.543 H 97.945 V 69.361 H 78.125 V 49.543 Z m 1.652,1.652 h 1.563 V 67.71 h -1.563 z m 2.94,0 h 1.626 V 67.71 H 82.719 V 51.195 Z m 3.002,0 h 1.626 V 67.71 H 85.72 Z m 3.003,0 h 1.626 V 67.71 h -1.626 z m 3.003,0 h 1.627 V 67.71 h -1.627 z m 3.002,0 h 1.566 V 67.71 h -1.566 z"
         inkscape:connector-curvature="0"
         style="fill:#34bbde" />
      <path
         id="path53346"
         d="m 100.993,49.543 h 19.818 v 19.818 h -19.818 z m 1.651,1.652 h 1.563 V 67.71 h -1.563 z m 2.94,0 h 1.626 V 67.71 h -1.626 z m 3.003,0 h 1.626 V 67.71 h -1.626 z m 3.003,0 h 1.626 V 67.71 h -1.626 z m 3.002,0 h 1.628 V 67.71 h -1.628 z m 3.003,0 h 1.564 V 67.71 h -1.564 z"
         inkscape:connector-curvature="0"
         style="fill:#23a3c2" />
      <path
         id="path53348"
         d="m 100.993,26.677 h 19.818 v 19.817 h -19.818 z m 1.651,1.652 h 1.563 v 16.514 h -1.563 z m 2.94,0 h 1.626 v 16.514 h -1.626 z m 3.003,0 h 1.626 v 16.514 h -1.626 z m 3.003,0 h 1.626 v 16.514 h -1.626 z m 3.002,0 h 1.628 v 16.514 h -1.628 z m 3.003,0 h 1.564 v 16.514 h -1.564 z m 6.264,21.214 h 19.818 v 19.818 h -19.818 z m 1.652,1.652 h 1.563 V 67.71 h -1.563 z m 2.94,0 h 1.626 V 67.71 h -1.626 z m 3.002,0 h 1.626 V 67.71 h -1.626 z m 3.003,0 h 1.627 V 67.71 h -1.627 z m 3.003,0 h 1.627 V 67.71 h -1.627 z m 3.003,0 h 1.564 V 67.71 h -1.564 z"
         inkscape:connector-curvature="0"
         style="fill:#34bbde" />
      <path
         id="path53350"
         d="m 123.859,26.677 h 19.818 v 19.817 h -19.818 z m 1.652,1.652 h 1.563 v 16.514 h -1.563 z m 2.94,0 h 1.626 v 16.514 h -1.626 z m 3.002,0 h 1.626 v 16.514 h -1.626 z m 3.003,0 h 1.627 v 16.514 h -1.627 z m 3.003,0 h 1.627 v 16.514 h -1.627 z m 3.003,0 h 1.564 v 16.514 h -1.564 z"
         inkscape:connector-curvature="0"
         style="fill:#23a3c2" />
      <path
         id="path53352"
         d="m 123.859,3.81 h 19.818 v 19.82 h -19.818 z m 1.652,1.651 h 1.563 v 16.516 h -1.563 V 5.46 Z m 2.94,0 h 1.626 v 16.516 h -1.626 V 5.46 Z m 3.002,0 h 1.626 v 16.516 h -1.626 V 5.46 Z m 3.003,0 h 1.627 v 16.516 h -1.627 V 5.46 Z m 3.003,0 h 1.627 v 16.516 h -1.627 V 5.46 Z m 3.003,0 h 1.564 v 16.516 h -1.564 V 5.46 Z"
         inkscape:connector-curvature="0"
         style="fill:#34bbde" />
      <path
         id="path53354"
         d="m 146.725,49.543 h 19.818 v 19.818 h -19.818 z m 1.65,1.652 h 1.565 V 67.71 h -1.564 V 51.195 Z m 2.94,0 h 1.627 V 67.71 h -1.626 V 51.195 Z m 3.004,0 h 1.627 V 67.71 h -1.627 z m 3.002,0 h 1.627 V 67.71 h -1.627 z m 3.004,0 h 1.626 V 67.71 h -1.626 z m 3.002,0 h 1.564 V 67.71 h -1.564 z"
         inkscape:connector-curvature="0"
         style="fill:#23a3c2" />
      <path
         id="path53356"
         d="m 96.704,101.492 a 5.468,5.468 0 1 1 -0.002,10.935 5.468,5.468 0 0 1 0.002,-10.935"
         inkscape:connector-curvature="0"
         style="fill:#d3ecec" />
      <path
         id="path53358"
         d="m 96.704,103.043 c 0.5,0 0.977,0.094 1.417,0.265 a 1.598,1.598 0 0 0 0.798,2.98 c 0.605,0 1.13,-0.335 1.402,-0.831 a 3.915,3.915 0 1 1 -3.617,-2.414 M 0,90.162 h 254.327 c -5.537,-1.404 -17.52,-3.302 -15.544,-10.56 -10.07,11.652 -34.353,8.175 -40.482,2.43 -6.824,9.898 -46.554,6.135 -49.325,-1.576 -8.556,10.041 -35.067,10.041 -43.623,0 -2.773,7.711 -42.502,11.474 -49.327,1.575 -6.128,5.746 -30.41,9.223 -40.48,-2.428 C 17.522,86.86 5.539,88.758 0,90.163"
         inkscape:connector-curvature="0"
         style="fill:#364548" />
      <path
         id="path53360"
         d="m 111.237,140.89 c -13.54,-6.425 -20.971,-15.16 -25.106,-24.694 -5.03,1.435 -11.075,2.353 -18.1,2.747 -2.646,0.148 -5.43,0.224 -8.35,0.224 -3.368,0 -6.917,-0.1 -10.643,-0.297 12.417,12.41 27.692,21.964 55.976,22.138 2.088,0 4.16,-0.04 6.223,-0.118"
         inkscape:connector-curvature="0"
         style="fill:#bdd9d7" />
      <path
         id="path53362"
         d="m 91.16,124.994 c -1.873,-2.543 -3.69,-5.739 -5.026,-8.8 -5.03,1.437 -11.077,2.355 -18.103,2.75 4.826,2.619 11.727,5.046 23.13,6.05"
         inkscape:connector-curvature="0"
         style="fill:#d3ecec" />
    </g>
    <g
       id="g53483"
       transform="matrix(1.1531803,0,0,1.1531803,3752.8547,-7.8494648)">
      <path
         id="path53466"
         d="m 82.085,244.934 c -5.946,0 -11.561,-2.642 -15.36,-7.432 L 8.92,165.657 C 5.121,160.867 3.635,154.757 5.121,148.81 L 25.766,59.128 C 27.087,53.182 31.051,48.392 36.502,45.75 L 120.073,5.78 c 2.643,-1.32 5.616,-1.981 8.589,-1.981 2.973,0 5.945,0.66 8.588,1.982 l 83.572,39.804 c 5.45,2.642 9.414,7.432 10.735,13.378 l 20.645,89.682 c 1.322,5.946 0,12.057 -3.798,16.847 l -57.807,71.845 c -3.799,4.624 -9.414,7.432 -15.36,7.432 l -93.15,0.165 z"
         inkscape:connector-curvature="0"
         style="fill:#326de6" />
      <path
         id="path53468"
         d="m 128.495,7.928 c 2.313,0 4.625,0.495 6.772,1.486 l 83.572,39.804 c 4.294,2.147 7.597,6.111 8.588,10.736 l 20.645,89.682 c 1.156,4.79 0,9.745 -3.138,13.543 l -57.806,71.846 c -2.973,3.798 -7.598,5.945 -12.387,5.945 H 82.085 c -4.79,0 -9.414,-2.147 -12.387,-5.945 L 11.892,163.179 C 8.919,159.381 7.762,154.426 8.754,149.636 L 29.399,59.954 c 1.156,-4.79 4.294,-8.754 8.588,-10.736 L 121.56,9.25 c 2.147,-0.826 4.624,-1.321 6.936,-1.321 z m 0,-7.763 c -3.468,0 -6.936,0.826 -10.24,2.312 l -83.571,39.97 c -6.607,3.138 -11.231,8.918 -12.883,16.02 L 1.156,148.15 c -1.651,7.102 0,14.369 4.625,20.15 l 57.806,71.845 c 4.46,5.615 11.231,8.753 18.333,8.753 h 92.655 c 7.102,0 13.874,-3.138 18.333,-8.753 l 57.807,-71.846 c 4.624,-5.615 6.276,-13.047 4.624,-20.15 L 234.694,58.467 c -1.651,-7.102 -6.276,-12.882 -12.882,-16.02 L 138.57,2.476 C 135.432,0.991 131.964,0.165 128.495,0.165 Z"
         inkscape:connector-curvature="0"
         style="fill:#ffffff" />
      <path
         id="path53470"
         d="m 212.232,142.534 c -0.165,0 -0.165,0 0,0 h -0.165 c -0.165,0 -0.33,0 -0.33,-0.165 -0.33,0 -0.66,-0.165 -0.991,-0.165 -1.156,-0.165 -2.147,-0.33 -3.138,-0.33 -0.496,0 -0.991,0 -1.652,-0.166 h -0.165 c -3.468,-0.33 -6.276,-0.66 -8.919,-1.486 -1.156,-0.496 -1.486,-1.156 -1.817,-1.817 0,-0.165 -0.165,-0.165 -0.165,-0.33 l -2.147,-0.66 a 65.33,65.33 0 0 0 -1.156,-23.289 68.054,68.054 0 0 0 -9.249,-21.636 l 1.652,-1.486 v -0.33 c 0,-0.826 0.165,-1.652 0.825,-2.478 1.982,-1.817 4.46,-3.303 7.433,-5.12 0.495,-0.33 0.99,-0.495 1.486,-0.826 0.991,-0.495 1.817,-0.99 2.808,-1.651 0.165,-0.165 0.495,-0.33 0.826,-0.66 0.165,-0.166 0.33,-0.166 0.33,-0.331 2.312,-1.982 2.808,-5.285 1.156,-7.433 -0.826,-1.156 -2.312,-1.816 -3.799,-1.816 -1.32,0 -2.477,0.495 -3.633,1.321 l -0.33,0.33 c -0.33,0.165 -0.496,0.496 -0.826,0.661 -0.826,0.826 -1.487,1.486 -2.147,2.312 -0.33,0.33 -0.66,0.826 -1.156,1.156 -2.313,2.478 -4.46,4.46 -6.607,5.946 -0.495,0.33 -0.99,0.496 -1.486,0.496 -0.33,0 -0.661,0 -0.991,-0.166 h -0.33 l -1.983,1.322 c -2.147,-2.312 -4.459,-4.294 -6.771,-6.276 A 65.958,65.958 0 0 0 134.276,63.752 l -0.165,-2.147 -0.33,-0.33 c -0.496,-0.496 -1.156,-0.991 -1.322,-2.147 -0.165,-2.643 0.166,-5.616 0.496,-8.919 v -0.165 c 0,-0.496 0.165,-1.156 0.33,-1.652 0.165,-0.99 0.33,-1.982 0.496,-3.138 v -1.486 c 0,-2.973 -2.313,-5.45 -5.12,-5.45 -1.322,0 -2.643,0.66 -3.634,1.651 -0.99,0.991 -1.486,2.312 -1.486,3.799 v 1.321 c 0,1.156 0.165,2.147 0.495,3.138 0.165,0.496 0.165,0.991 0.33,1.652 v 0.165 c 0.33,3.303 0.826,6.276 0.496,8.919 -0.165,1.156 -0.826,1.651 -1.321,2.147 l -0.33,0.33 -0.166,2.147 c -2.973,0.33 -5.946,0.66 -8.919,1.321 -12.717,2.808 -23.948,9.25 -32.701,18.498 L 79.773,82.25 h -0.33 c -0.33,0 -0.661,0.165 -0.991,0.165 -0.496,0 -0.991,-0.165 -1.487,-0.495 -2.147,-1.486 -4.294,-3.634 -6.606,-6.111 -0.33,-0.33 -0.66,-0.826 -1.156,-1.156 C 68.542,73.827 67.881,73.166 67.055,72.341 66.89,72.175 66.56,72.011 66.23,71.68 66.065,71.515 65.9,71.515 65.9,71.35 a 5.772,5.772 0 0 0 -3.634,-1.322 c -1.487,0 -2.973,0.661 -3.799,1.817 -1.652,2.147 -1.156,5.45 1.156,7.432 0.165,0 0.165,0.166 0.33,0.166 0.33,0.165 0.496,0.495 0.826,0.66 0.991,0.66 1.817,1.156 2.808,1.652 0.496,0.165 0.991,0.495 1.487,0.826 2.972,1.816 5.45,3.303 7.432,5.12 0.826,0.825 0.826,1.651 0.826,2.477 v 0.33 l 1.651,1.487 c -0.33,0.495 -0.66,0.826 -0.826,1.321 -8.258,13.048 -11.396,28.408 -9.249,43.603 l -2.147,0.66 c 0,0.166 -0.165,0.166 -0.165,0.33 -0.33,0.661 -0.826,1.322 -1.817,1.817 -2.477,0.826 -5.45,1.157 -8.918,1.487 h -0.166 c -0.495,0 -1.156,0 -1.651,0.165 -0.991,0 -1.982,0.165 -3.138,0.33 -0.33,0 -0.66,0.166 -0.991,0.166 -0.165,0 -0.33,0 -0.496,0.165 -2.973,0.66 -4.79,3.468 -4.294,6.11 0.496,2.313 2.643,3.8 5.285,3.8 0.496,0 0.826,0 1.322,-0.166 0.165,0 0.33,0 0.33,-0.165 0.33,0 0.66,-0.165 0.99,-0.165 1.157,-0.33 1.983,-0.66 2.974,-1.156 0.495,-0.165 0.99,-0.496 1.486,-0.66 h 0.165 c 3.138,-1.157 5.946,-2.148 8.589,-2.478 h 0.33 c 0.991,0 1.652,0.495 2.147,0.826 0.165,0 0.165,0.165 0.33,0.165 l 2.313,-0.33 c 3.964,12.221 11.561,23.122 21.636,31.05 2.312,1.816 4.624,3.303 7.102,4.79 l -0.991,2.146 c 0,0.166 0.165,0.166 0.165,0.33 0.33,0.661 0.66,1.487 0.33,2.643 -0.99,2.478 -2.477,4.955 -4.294,7.763 v 0.165 c -0.33,0.496 -0.66,0.826 -0.99,1.321 -0.661,0.826 -1.157,1.652 -1.818,2.643 -0.165,0.165 -0.33,0.495 -0.495,0.826 0,0.165 -0.165,0.33 -0.165,0.33 -1.321,2.808 -0.33,5.946 2.147,7.102 0.66,0.33 1.321,0.496 1.982,0.496 1.982,0 3.964,-1.322 4.955,-3.139 0,-0.165 0.165,-0.33 0.165,-0.33 0.165,-0.33 0.33,-0.66 0.495,-0.826 0.496,-1.156 0.661,-1.982 0.991,-2.973 l 0.496,-1.486 c 1.156,-3.303 1.982,-5.946 3.468,-8.258 0.66,-0.991 1.487,-1.156 2.147,-1.487 0.165,0 0.165,0 0.33,-0.165 l 1.157,-2.147 c 7.267,2.808 15.195,4.294 23.122,4.294 4.79,0 9.745,-0.495 14.37,-1.651 a 73.402,73.402 0 0 0 8.588,-2.478 l 0.99,1.817 c 0.166,0 0.166,0 0.331,0.165 0.826,0.165 1.486,0.496 2.147,1.487 1.321,2.312 2.312,5.12 3.468,8.258 v 0.165 l 0.496,1.486 c 0.33,0.991 0.495,1.982 0.99,2.973 0.166,0.33 0.331,0.496 0.496,0.826 0,0.165 0.166,0.33 0.166,0.33 0.99,1.982 2.972,3.139 4.954,3.139 0.661,0 1.322,-0.166 1.982,-0.496 1.156,-0.66 2.147,-1.652 2.478,-2.973 0.33,-1.321 0.33,-2.808 -0.33,-4.129 0,-0.165 -0.166,-0.165 -0.166,-0.33 -0.165,-0.33 -0.33,-0.66 -0.495,-0.826 -0.496,-0.991 -1.156,-1.817 -1.817,-2.643 -0.33,-0.495 -0.66,-0.825 -0.99,-1.32 v -0.166 c -1.818,-2.808 -3.47,-5.285 -4.295,-7.763 -0.33,-1.156 0,-1.816 0.165,-2.642 0,-0.165 0.165,-0.165 0.165,-0.33 l -0.826,-1.982 c 8.754,-5.12 16.186,-12.388 21.802,-21.306 2.973,-4.625 5.285,-9.745 6.936,-14.865 l 1.982,0.33 c 0.166,0 0.166,-0.165 0.33,-0.165 0.661,-0.33 1.157,-0.825 2.148,-0.825 h 0.33 c 2.643,0.33 5.45,1.32 8.589,2.477 h 0.165 c 0.495,0.165 0.99,0.495 1.486,0.66 0.991,0.496 1.817,0.826 2.973,1.157 0.33,0 0.66,0.165 0.991,0.165 0.165,0 0.33,0 0.495,0.165 0.496,0.165 0.826,0.165 1.322,0.165 2.477,0 4.624,-1.651 5.285,-3.798 0,-1.982 -1.817,-4.625 -4.79,-5.45 z m -76.47,-8.093 -7.267,3.469 -7.267,-3.469 -1.816,-7.762 4.954,-6.276 h 8.093 l 4.955,6.276 -1.651,7.762 z m 43.108,-17.176 a 52.078,52.078 0 0 1 1.156,16.68 l -25.27,-7.266 c -2.312,-0.66 -3.633,-2.973 -3.138,-5.285 0.165,-0.661 0.496,-1.322 0.991,-1.817 l 19.985,-18.003 c 2.807,4.625 4.954,9.91 6.276,15.69 z m -14.204,-25.6 -21.636,15.36 c -1.817,1.156 -4.295,0.825 -5.781,-0.991 -0.495,-0.496 -0.66,-1.157 -0.826,-1.817 l -1.486,-26.922 a 50.13,50.13 0 0 1 29.729,14.37 z M 116.769,78.12 c 1.817,-0.33 3.468,-0.66 5.285,-0.99 l -1.486,26.425 c -0.165,2.312 -1.982,4.294 -4.46,4.294 -0.66,0 -1.486,-0.165 -1.982,-0.495 L 92.16,91.665 c 6.772,-6.772 15.195,-11.397 24.609,-13.544 z m -32.537,23.453 19.654,17.507 c 1.817,1.487 1.982,4.294 0.496,6.111 -0.496,0.66 -1.156,1.156 -1.982,1.322 l -25.6,7.432 c -0.991,-11.231 1.486,-22.627 7.432,-32.372 z m -4.46,44.759 26.262,-4.46 c 2.147,-0.165 4.129,1.322 4.624,3.469 0.165,0.99 0.165,1.817 -0.165,2.643 l -10.075,24.278 c -9.249,-5.946 -16.681,-15.03 -20.645,-25.93 z m 60.285,32.867 c -3.799,0.826 -7.598,1.321 -11.562,1.321 -5.78,0 -11.396,-0.99 -16.68,-2.642 l 13.047,-23.618 c 1.321,-1.487 3.468,-2.147 5.285,-1.156 a 7.04,7.04 0 0 1 1.982,1.816 l 12.717,22.958 c -1.486,0.495 -3.138,0.826 -4.79,1.321 z m 32.206,-22.957 c -4.129,6.606 -9.58,11.891 -15.855,16.02 l -10.405,-24.94 c -0.496,-1.981 0.33,-4.128 2.312,-5.12 0.66,-0.33 1.486,-0.495 2.312,-0.495 l 26.426,4.46 c -0.991,3.633 -2.643,6.937 -4.79,10.075 z"
         inkscape:connector-curvature="0"
         style="fill:#ffffff" />
    </g>
  </g>
  <style
     id="style2996"
     type="text/css">
	.st0{fill:#DAF4CC;}
	.st1{fill:#6AAF4E;stroke:#424242;stroke-width:1.779;stroke-miterlimit:10;}
	.st2{fill:#FFFFFF;stroke:#424242;stroke-width:1.779;stroke-miterlimit:10;}
	.st3{fill:#424242;}
	.st4{fill:#FFFFFF;stroke:#424242;stroke-width:1.7265;stroke-miterlimit:10;}
	.st5{fill:none;stroke:#424242;stroke-width:2;stroke-miterlimit:10;}
	.st6{fill:#FFFFFF;stroke:#424242;stroke-width:2;stroke-miterlimit:10;}
	.st7{fill:#87D05F;}
	.st8{fill:#67B145;}
	.st9{fill:none;stroke:#424242;stroke-width:7;stroke-miterlimit:10;}
	.st10{fill:#FFFFFF;}
	.st11{fill:#6AAF4E;stroke:#6AAF4E;stroke-miterlimit:10;}
	.st12{fill:#424242;stroke:#424242;stroke-miterlimit:10;}
	.st13{fill:#6AAF4E;}
	.st14{fill:none;stroke:#6AAF4E;stroke-width:5;stroke-miterlimit:10;}
	.st15{fill:#FFFFFF;stroke:#6AAF4E;stroke-width:5;stroke-miterlimit:10;}
	.st16{fill:#68B245;}
	.st17{fill:none;stroke:#68B245;stroke-width:5;stroke-miterlimit:10;}
	.st18{fill:none;stroke:#6AAF4E;stroke-width:5;stroke-linecap:square;stroke-linejoin:round;stroke-miterlimit:10;}
	.st19{display:none;}
	.st20{display:inline;fill:none;stroke:#6AAF4E;stroke-width:4.1715;stroke-miterlimit:10;}
	.st21{display:inline;fill:none;stroke:#6AAF4E;stroke-width:4;stroke-miterlimit:10;}
	.st22{display:inline;fill:#6AAF4E;}
	.st23{fill:none;stroke:#6AAF4E;stroke-width:4.2239;stroke-miterlimit:10;}
	.st24{fill:#4BA647;}
</style>
</svg>
