<?xml version="1.0" encoding="UTF-8" standalone="no"?>
<!-- Created with Inkscape (http://www.inkscape.org/) -->

<svg
   xmlns:dc="http://purl.org/dc/elements/1.1/"
   xmlns:cc="http://creativecommons.org/ns#"
   xmlns:rdf="http://www.w3.org/1999/02/22-rdf-syntax-ns#"
   xmlns:svg="http://www.w3.org/2000/svg"
   xmlns="http://www.w3.org/2000/svg"
   xmlns:sodipodi="http://sodipodi.sourceforge.net/DTD/sodipodi-0.dtd"
   xmlns:inkscape="http://www.inkscape.org/namespaces/inkscape"
   width="800mm"
   height="600mm"
   viewBox="0 0 2834.6457 2125.9842"
   id="svg2"
   version="1.1"
   inkscape:version="0.92.4 (5da689c313, 2019-01-14)"
   sodipodi:docname="rock-break-2.svg">
  <defs
     id="defs4">
    <marker
       inkscape:stockid="Arrow1Mend"
       orient="auto"
       refY="0"
       refX="0"
       id="Arrow1Mend"
       style="overflow:visible"
       inkscape:isstock="true">
      <path
         id="path4420"
         d="M 0,0 5,-5 -12.5,0 5,5 Z"
         style="fill:#00bff0;fill-opacity:1;fill-rule:evenodd;stroke:#00bff0;stroke-width:1.00000003pt;stroke-opacity:1"
         transform="matrix(-0.4,0,0,-0.4,-4,0)"
         inkscape:connector-curvature="0" />
    </marker>
    <linearGradient
       id="b"
       y2="1.85"
       x2="57.903"
       y1="1.85"
       x1="57.903"
       gradientTransform="scale(0)"
       gradientUnits="userSpaceOnUse">
      <stop
         id="stop4879"
         offset="0%"
         stop-color="#41873F" />
      <stop
         id="stop4881"
         offset="32.88%"
         stop-color="#418B3D" />
      <stop
         id="stop4883"
         offset="63.52%"
         stop-color="#419637" />
      <stop
         id="stop4885"
         offset="93.19%"
         stop-color="#3FA92D" />
      <stop
         id="stop4887"
         offset="100%"
         stop-color="#3FAE2A" />
    </linearGradient>
    <path
       d="m 57.903,1.85 a 5.957,5.957 0 0 0 -5.894,0 L 3.352,29.933 c -1.85,1.04 -2.89,3.005 -2.89,5.085 v 56.286 c 0,2.08 1.156,4.045 2.89,5.085 l 48.657,28.085 a 5.957,5.957 0 0 0 5.894,0 l 48.658,-28.085 c 1.849,-1.04 2.89,-3.005 2.89,-5.085 V 35.019 c 0,-2.08 -1.157,-4.045 -2.89,-5.085 z"
       id="a"
       inkscape:connector-curvature="0" />
    <linearGradient
       id="d"
       y2="-4.3421721"
       x2="102.80521"
       y1="22.882973"
       x1="59.834877"
       gradientTransform="scale(1.3193853,0.75792869)"
       gradientUnits="userSpaceOnUse">
      <stop
         id="stop4891"
         offset="13.76%"
         stop-color="#41873F" />
      <stop
         id="stop4893"
         offset="40.32%"
         stop-color="#54A044" />
      <stop
         id="stop4895"
         offset="71.36%"
         stop-color="#66B848" />
      <stop
         id="stop4897"
         offset="90.81%"
         stop-color="#6CC04A" />
    </linearGradient>
    <linearGradient
       id="e"
       y2="1.3961854"
       x2="60.624519"
       y1="1.3961854"
       x1="5.4630942"
       gradientTransform="scale(1.6318162,0.6128141)"
       gradientUnits="userSpaceOnUse">
      <stop
         id="stop4900"
         offset="9.192%"
         stop-color="#6CC04A" />
      <stop
         id="stop4902"
         offset="28.64%"
         stop-color="#66B848" />
      <stop
         id="stop4904"
         offset="59.68%"
         stop-color="#54A044" />
      <stop
         id="stop4906"
         offset="86.24%"
         stop-color="#41873F" />
    </linearGradient>
    <linearGradient
       id="f"
       y2="66.989662"
       x2="120.27905"
       y1="66.989662"
       x1="-1.4223322"
       gradientTransform="scale(0.92514783,1.0809083)"
       gradientUnits="userSpaceOnUse">
      <stop
         id="stop4909"
         offset="9.192%"
         stop-color="#6CC04A" />
      <stop
         id="stop4911"
         offset="28.64%"
         stop-color="#66B848" />
      <stop
         id="stop4913"
         offset="59.68%"
         stop-color="#54A044" />
      <stop
         id="stop4915"
         offset="86.24%"
         stop-color="#41873F" />
    </linearGradient>
    <linearGradient
       id="g"
       y2="68.39164"
       x2="169.56171"
       y1="68.39164"
       x1="117.94696"
       gradientTransform="scale(0.65492335,1.5268962)"
       gradientUnits="userSpaceOnUse">
      <stop
         id="stop4918"
         offset="9.192%"
         stop-color="#6CC04A" />
      <stop
         id="stop4920"
         offset="28.64%"
         stop-color="#66B848" />
      <stop
         id="stop4922"
         offset="59.68%"
         stop-color="#54A044" />
      <stop
         id="stop4924"
         offset="86.24%"
         stop-color="#41873F" />
    </linearGradient>
    <linearGradient
       id="h"
       y2="157.8152"
       x2="81.332504"
       y1="157.8152"
       x1="5.5872092"
       gradientTransform="scale(1.3178092,0.75883522)"
       gradientUnits="userSpaceOnUse">
      <stop
         id="stop4927"
         offset="9.192%"
         stop-color="#6CC04A" />
      <stop
         id="stop4929"
         offset="28.64%"
         stop-color="#66B848" />
      <stop
         id="stop4931"
         offset="59.68%"
         stop-color="#54A044" />
      <stop
         id="stop4933"
         offset="86.24%"
         stop-color="#41873F" />
    </linearGradient>
    <linearGradient
       id="i"
       y2="213.82344"
       x2="45.65274"
       y1="61.090031"
       x1="92.367607"
       gradientTransform="scale(1.3178092,0.75883522)"
       gradientUnits="userSpaceOnUse">
      <stop
         id="stop4936"
         offset="0%"
         stop-color="#41873F" />
      <stop
         id="stop4938"
         offset="32.88%"
         stop-color="#418B3D" />
      <stop
         id="stop4940"
         offset="63.52%"
         stop-color="#419637" />
      <stop
         id="stop4942"
         offset="93.19%"
         stop-color="#3FA92D" />
      <stop
         id="stop4944"
         offset="100%"
         stop-color="#3FAE2A" />
    </linearGradient>
    <path
       inkscape:connector-curvature="0"
       id="a-8"
       d="m 57.903,1.85 a 5.957,5.957 0 0 0 -5.894,0 L 3.352,29.933 c -1.85,1.04 -2.89,3.005 -2.89,5.085 v 56.286 c 0,2.08 1.156,4.045 2.89,5.085 l 48.657,28.085 a 5.957,5.957 0 0 0 5.894,0 l 48.658,-28.085 c 1.849,-1.04 2.89,-3.005 2.89,-5.085 V 35.019 c 0,-2.08 -1.157,-4.045 -2.89,-5.085 z" />
    <linearGradient
       x1="93.627998"
       y1="24.229"
       gradientTransform="matrix(0.9973,-0.0732,0.0732,0.9973,-6.3155,6.9983)"
       x2="93.627998"
       gradientUnits="userSpaceOnUse"
       y2="122.5"
       id="SVGID_1_">
      <stop
         id="stop9977"
         offset="0"
         style="stop-color:#C56FB4" />
      <stop
         id="stop9979"
         offset="1"
         style="stop-color:#9C2683" />
    </linearGradient>
    <linearGradient
       x1="123.84"
       y1="53.573002"
       x2="123.84"
       gradientUnits="userSpaceOnUse"
       y2="151.85001"
       id="SVGID_2_"
       gradientTransform="matrix(0.9375,0,0,0.9375,1331.7613,575.3704)">
      <stop
         id="stop9986"
         offset="0"
         style="stop-color:#8BC53F" />
      <stop
         id="stop9988"
         offset="1"
         style="stop-color:#6C9C31" />
    </linearGradient>
    <clipPath
       id="clipPath3927">
      <path
         id="path3929"
         style="fill:none;stroke:#ffffff;stroke-width:103.87999725"
         d="m 1486.1,1425.8 a 1043.75,1033.8495 0 1 1 -2087.5,0 1043.75,1033.8495 0 1 1 2087.5,0 z"
         transform="matrix(0.89346,0,0,-0.90205,632.34,2313.7)"
         inkscape:connector-curvature="0" />
    </clipPath>
    <linearGradient
       gradientUnits="userSpaceOnUse"
       gradientTransform="scale(0.80536275,1.2416765)"
       x1="167.51685"
       y1="24.393208"
       x2="160.31"
       y2="320.03421"
       id="linearGradient-1">
      <stop
         stop-color="#D9D8DC"
         offset="0%"
         id="stop1963" />
      <stop
         stop-color="#FFFFFF"
         stop-opacity="0.385275136"
         offset="100%"
         id="stop1965" />
    </linearGradient>
    <linearGradient
       gradientUnits="userSpaceOnUse"
       gradientTransform="scale(0.70913123,1.4101762)"
       x1="199.03606"
       y1="21.412943"
       x2="140.0712"
       y2="278.40781"
       id="linearGradient-2">
      <stop
         stop-color="#8D67AF"
         stop-opacity="0.671931612"
         offset="0%"
         id="stop1968" />
      <stop
         stop-color="#9F8DAF"
         offset="100%"
         id="stop1970" />
    </linearGradient>
    <linearGradient
       gradientUnits="userSpaceOnUse"
       gradientTransform="scale(0.76164467,1.3129482)"
       x1="206.42825"
       y1="100.91758"
       x2="206.42825"
       y2="294.31174"
       id="linearGradient-3">
      <stop
         stop-color="#26053D"
         stop-opacity="0.761633832"
         offset="0%"
         id="stop1973" />
      <stop
         stop-color="#B7B4B4"
         stop-opacity="0.277683424"
         offset="100%"
         id="stop1975" />
    </linearGradient>
    <linearGradient
       gradientUnits="userSpaceOnUse"
       gradientTransform="scale(1.1473049,0.87160792)"
       x1="23.483095"
       y1="171.71753"
       x2="112.93068"
       y2="351.72263"
       id="linearGradient-4">
      <stop
         stop-color="#91739F"
         stop-opacity="0.459550498"
         offset="0%"
         id="stop1978" />
      <stop
         stop-color="#32054F"
         stop-opacity="0.539911685"
         offset="100%"
         id="stop1980" />
    </linearGradient>
    <linearGradient
       gradientUnits="userSpaceOnUse"
       gradientTransform="scale(0.88068721,1.1354769)"
       x1="226.7811"
       y1="317.25201"
       x2="67.803513"
       y2="147.4131"
       id="linearGradient-5">
      <stop
         stop-color="#463D49"
         stop-opacity="0.331182065"
         offset="0%"
         id="stop1983" />
      <stop
         stop-color="#340A50"
         stop-opacity="0.821388134"
         offset="100%"
         id="stop1985" />
    </linearGradient>
    <linearGradient
       gradientUnits="userSpaceOnUse"
       gradientTransform="scale(0.65796714,1.5198327)"
       x1="248.0164"
       y1="88.755203"
       x2="200.70529"
       y2="255.00511"
       id="linearGradient-6">
      <stop
         stop-color="#715383"
         stop-opacity="0.145238904"
         offset="0%"
         id="stop1988" />
      <stop
         stop-color="#F4F4F4"
         stop-opacity="0.23363904"
         offset="100%"
         id="stop1990" />
    </linearGradient>
    <linearGradient
       gradientUnits="userSpaceOnUse"
       gradientTransform="scale(0.5695618,1.7557357)"
       x1="307.5639"
       y1="109.963"
       x2="156.45103"
       y2="81.526764"
       id="linearGradient-7">
      <stop
         stop-color="#A5A1A8"
         stop-opacity="0.356091486"
         offset="0%"
         id="stop1993" />
      <stop
         stop-color="#370C50"
         stop-opacity="0.581974638"
         offset="100%"
         id="stop1995" />
    </linearGradient>
    <clipPath
       id="p.0">
      <path
         style="clip-rule:nonzero"
         inkscape:connector-curvature="0"
         d="M 0,0 H 437 V 487 H 0 Z"
         id="path19598" />
    </clipPath>
  </defs>
  <sodipodi:namedview
     id="base"
     pagecolor="#dacfe5"
     bordercolor="#666666"
     borderopacity="1.0"
     inkscape:pageopacity="1"
     inkscape:pageshadow="2"
     inkscape:zoom="0.13"
     inkscape:cx="243.6171"
     inkscape:cy="1104.3001"
     inkscape:document-units="px"
     inkscape:current-layer="layer1"
     showgrid="false"
     inkscape:window-width="1600"
     inkscape:window-height="839"
     inkscape:window-x="0"
     inkscape:window-y="27"
     inkscape:window-maximized="1"
     fit-margin-top="0"
     fit-margin-left="0"
     fit-margin-right="0"
     fit-margin-bottom="0"
     showguides="true"
     inkscape:guide-bbox="true" />
  <metadata
     id="metadata7">
    <rdf:RDF>
      <cc:Work
         rdf:about="">
        <dc:format>image/svg+xml</dc:format>
        <dc:type
           rdf:resource="http://purl.org/dc/dcmitype/StillImage" />
        <dc:title></dc:title>
      </cc:Work>
    </rdf:RDF>
  </metadata>
  <g
     inkscape:label="Calque 1"
     inkscape:groupmode="layer"
     id="layer1"
     transform="translate(-1409.7967,1126.924)">
    <text
       xml:space="preserve"
       style="font-style:normal;font-weight:normal;font-size:20.4382515px;line-height:125%;font-family:sans-serif;letter-spacing:0px;word-spacing:0px;fill:#544568;fill-opacity:1;stroke:none;stroke-width:0.51095629px;stroke-linecap:butt;stroke-linejoin:miter;stroke-opacity:1"
       x="1835.5022"
       y="547.96832"
       id="text1704"><tspan
         sodipodi:role="line"
         id="tspan1702"
         x="1835.5022"
         y="566.05139"
         style="fill:#544568;fill-opacity:1;stroke-width:0.51095629px" /></text>
    <text
       xml:space="preserve"
       style="font-style:normal;font-weight:normal;font-size:20.4382515px;line-height:1.25;font-family:sans-serif;letter-spacing:0px;word-spacing:0px;fill:#544568;fill-opacity:1;stroke:none;stroke-width:0.51095629"
       x="2398.0229"
       y="-91.708244"
       id="text2626"><tspan
         sodipodi:role="line"
         id="tspan2624"
         x="2398.0229"
         y="-73.625183"
         style="fill:#544568;fill-opacity:1;stroke-width:0.51095629" /></text>
    <text
       xml:space="preserve"
       style="font-style:normal;font-variant:normal;font-weight:bold;font-stretch:normal;font-size:67.34164429px;line-height:1.25;font-family:'Courier 10 Pitch';-inkscape-font-specification:'Courier 10 Pitch Bold';text-align:center;letter-spacing:0px;word-spacing:0px;text-anchor:middle;fill:#544568;fill-opacity:1;stroke:none;stroke-width:1.68354082"
       x="2880.1838"
       y="-682.14697"
       id="text1545"><tspan
         sodipodi:role="line"
         x="2880.1838"
         y="-682.14697"
         style="font-style:normal;font-variant:normal;font-weight:bold;font-stretch:normal;font-size:250px;font-family:'Courier 10 Pitch';-inkscape-font-specification:'Courier 10 Pitch Bold';text-align:center;text-anchor:middle;fill:#544568;fill-opacity:1;stroke-width:1.68354082"
         id="tspan1219">Are you ready</tspan><tspan
         sodipodi:role="line"
         x="2880.1838"
         y="-369.64697"
         style="font-style:normal;font-variant:normal;font-weight:bold;font-stretch:normal;font-size:250px;font-family:'Courier 10 Pitch';-inkscape-font-specification:'Courier 10 Pitch Bold';text-align:center;text-anchor:middle;fill:#544568;fill-opacity:1;stroke-width:1.68354082"
         id="tspan47184">to rock ?</tspan><tspan
         sodipodi:role="line"
         x="2880.1838"
         y="-214.9675"
         style="font-style:normal;font-variant:normal;font-weight:bold;font-stretch:normal;font-size:323.23983765px;font-family:'Courier 10 Pitch';-inkscape-font-specification:'Courier 10 Pitch Bold';text-align:center;text-anchor:middle;fill:#544568;fill-opacity:1;stroke-width:1.68354082"
         id="tspan15234" /></text>
    <flowRoot
       xml:space="preserve"
       id="flowRoot1547"
       style="font-style:normal;font-variant:normal;font-weight:normal;font-stretch:normal;font-size:40px;line-height:1.25;font-family:serif;-inkscape-font-specification:serif;letter-spacing:0px;word-spacing:0px;fill:#544568;fill-opacity:1;stroke:none"
       transform="matrix(0.51095625,0,0,0.51095625,1391.4395,-323.02658)"><flowRegion
         id="flowRegion1549"
         style="fill:#544568;fill-opacity:1"><rect
           id="rect1551"
           width="297.17355"
           height="77.947159"
           x="462.81128"
           y="567.49408"
           style="fill:#544568;fill-opacity:1" /></flowRegion><flowPara
         id="flowPara1553" /></flowRoot>    <flowRoot
       xml:space="preserve"
       id="flowRoot1559"
       style="font-style:normal;font-variant:normal;font-weight:normal;font-stretch:normal;font-size:40px;line-height:1.25;font-family:serif;-inkscape-font-specification:serif;letter-spacing:0px;word-spacing:0px;fill:#544568;fill-opacity:1;stroke:none"
       transform="matrix(0.54502,0,0,0.54502,1016.1151,278.99102)"><flowRegion
         id="flowRegion1561"
         style="fill:#544568;fill-opacity:1"><rect
           id="rect1563"
           width="925.62256"
           height="516.39996"
           x="1081.5168"
           y="431.08655"
           style="fill:#544568;fill-opacity:1" /></flowRegion><flowPara
         id="flowPara1565" /></flowRoot>    <flowRoot
       xml:space="preserve"
       id="flowRoot1787"
       style="font-style:normal;font-variant:normal;font-weight:normal;font-stretch:normal;font-size:40px;line-height:1.25;font-family:serif;-inkscape-font-specification:serif;letter-spacing:0px;word-spacing:0px;fill:#000000;fill-opacity:1;stroke:none"
       transform="matrix(0.54502,0,0,0.54502,1016.1151,278.99102)"><flowRegion
         id="flowRegion1789"><rect
           id="rect1791"
           width="1096.132"
           height="297.17355"
           x="906.13574"
           y="1585.6788" /></flowRegion><flowPara
         id="flowPara1793" /></flowRoot>    <text
       xml:space="preserve"
       style="font-style:normal;font-variant:normal;font-weight:normal;font-stretch:normal;font-size:37.5px;line-height:1.25;font-family:serif;-inkscape-font-specification:serif;letter-spacing:0px;word-spacing:0px;fill:#000000;fill-opacity:1;stroke:none;stroke-width:0.9375"
       x="2650.1814"
       y="-133.15135"
       id="text16609"><tspan
         sodipodi:role="line"
         id="tspan16607"
         x="2650.1814"
         y="-99.972641"
         style="stroke-width:0.9375" /><tspan
         sodipodi:role="line"
         x="2650.1814"
         y="-53.097641"
         style="stroke-width:0.9375"
         id="tspan16611" /></text>
    <text
       xml:space="preserve"
       style="font-style:normal;font-variant:normal;font-weight:normal;font-stretch:normal;font-size:37.5px;line-height:1.25;font-family:serif;-inkscape-font-specification:serif;letter-spacing:0px;word-spacing:0px;fill:#000000;fill-opacity:1;stroke:none;stroke-width:0.9375"
       x="1741.5275"
       y="97.617958"
       id="text20141"><tspan
         sodipodi:role="line"
         id="tspan20139"
         x="1741.5275"
         y="130.79666"
         style="stroke-width:0.9375" /></text>
    <g
       id="g47469"
       transform="matrix(1.8530309,0,0,1.8530309,2401.3618,-149.59267)"
       style="fill:#008000">
      <g
         id="g47412"
         transform="translate(1,1)"
         style="fill:#008000">
	<g
   id="g47410"
   style="fill:#008000">
		<path
   id="path47408"
   d="m 416.097,39.77 c -7.585,-8.533 -18.963,-12.326 -33.185,-12.326 -13.274,0 -32.237,7.585 -42.667,44.563 l -22.756,84.385 c -7.585,-8.533 -18.015,-15.17 -30.341,-15.17 -0.145,0 -0.286,0.014 -0.431,0.016 -0.173,-0.002 -0.344,-0.016 -0.517,-0.016 -13.802,0 -25.224,7.73 -32.607,18.526 -0.129,-0.156 -0.262,-0.309 -0.392,-0.464 -7.344,-9.797 -18.099,-16.962 -30.49,-17.936 -0.111,-0.009 -0.221,-0.023 -0.333,-0.031 -0.843,-0.059 -1.692,-0.095 -2.549,-0.095 -0.676,0 -1.352,0.025 -2.028,0.063 -0.29,0.016 -0.577,0.042 -0.865,0.065 -0.352,0.029 -0.703,0.06 -1.055,0.099 -0.389,0.043 -0.776,0.091 -1.16,0.146 -0.19,0.027 -0.379,0.059 -0.568,0.09 -8.088,1.286 -15.178,5.261 -20.883,10.842 L 179.06,54.941 C 178.112,45.46 176.216,36.926 173.371,30.289 170.527,22.704 161.993,-1 136.394,-1 125.964,-1 115.535,3.741 107.001,13.222 97.519,22.703 92.779,35.978 93.727,48.303 l 18.015,238.933 C 87.09,299.562 84.246,317.577 84.246,358.347 v 0.948 c 0,39.822 27.496,70.163 37.926,79.644 v 34.133 c 0,20.859 17.067,37.926 37.926,37.926 h 170.667 c 20.859,0 37.926,-17.067 37.926,-37.926 v -34.133 c 28.444,-38.874 28.444,-43.615 28.444,-117.57 V 303.354 L 425.579,75.8 c 0.948,-15.17 -1.897,-27.496 -9.482,-36.03 z M 311.801,188.63 v 104.296 c 0,13.274 -9.482,28.444 -22.756,28.444 -13.274,0 -24.652,-15.17 -24.652,-28.444 V 188.63 c 0,-8.646 4.024,-18.092 10.497,-23.631 3.09,-2.381 6.602,-3.865 10.362,-3.865 11.378,0 20.859,11.378 23.704,21.807 0.754,1.507 1.661,2.86 2.773,3.949 0.043,0.582 0.072,1.163 0.072,1.74 z m -84.092,95.38 c 1.817,-2.866 3.307,-5.585 4.447,-8.151 9.482,-19.911 0,-48.356 -18.963,-59.733 -2.91,-1.663 -8.735,-4.418 -16.119,-4.353 V 188.63 c 0,-6.529 2.527,-13.513 6.558,-18.929 3.88,-4.484 8.829,-7.62 14.302,-7.62 11.378,0 20.859,11.378 23.704,21.807 0.765,1.53 1.689,2.901 2.825,3.998 0.008,0.248 0.02,0.496 0.02,0.742 v 104.296 c 0,13.274 -9.481,28.444 -22.756,28.444 -5.689,0 -11.378,-2.844 -16.119,-8.533 10.133,-10.854 17.494,-20.6 22.101,-28.825 z M 121.223,25.548 c 4.741,-4.741 10.43,-7.585 15.17,-7.585 6.637,0 13.274,1.896 19.911,18.963 1.896,5.689 3.793,12.326 4.741,22.756 l 17.716,121.213 c -0.421,2.577 -0.649,5.168 -0.649,7.735 v 29.924 c -4.663,3.446 -9.467,8.454 -14.222,15.587 -6.11,8.401 -16.531,23.569 -33.731,38.566 L 112.69,47.356 c -0.948,-7.586 2.844,-15.171 8.533,-21.808 z M 406.616,73.904 378.172,301.46 v 0.948 18.963 c 0,72.059 0,72.059 -26.548,108.089 -0.948,1.896 -1.896,3.793 -1.896,5.689 v 37.926 c 0,10.43 -8.533,18.963 -18.963,18.963 H 160.097 c -10.43,0 -18.963,-8.533 -18.963,-18.963 v -37.926 c 0,-2.844 -0.948,-5.689 -2.844,-7.585 -0.948,0 -34.133,-28.444 -35.081,-67.318 0,-45.511 2.844,-50.252 22.756,-58.785 1.977,-0.989 3.427,-2.499 4.373,-4.25 26.244,-18.461 40.54,-39.871 48.723,-51.691 2.769,-4.154 6.214,-8.527 10.112,-11.271 1.114,-0.098 2.193,-0.409 3.162,-1.055 1.143,-0.571 4.012,-1.818 7.559,-1.277 0.946,0.282 1.903,0.697 2.87,1.277 10.43,5.689 16.119,24.652 11.378,35.081 -4.741,10.43 -18.963,29.393 -60.681,64.474 -3.793,2.844 -4.741,9.482 -0.948,13.274 1.896,2.844 4.741,3.793 7.585,3.793 1.896,0 4.741,-0.948 6.637,-2.844 9.005,-7.788 17.191,-15.135 24.523,-22.048 8.382,9.669 19.419,15.411 30.47,15.411 13.699,0 25.342,-7.618 32.827,-18.288 7.908,10.67 19.844,18.288 33.543,18.288 24.652,0 42.667,-24.652 41.719,-47.407 V 188.63 c 0,-1.596 -0.103,-3.201 -0.285,-4.807 0.11,-0.288 0.21,-0.581 0.285,-0.882 L 358.26,78.644 c 2.844,-11.378 11.378,-31.289 24.652,-31.289 9.482,0 15.17,1.896 18.963,5.689 3.793,3.793 5.689,11.378 4.741,20.86 z"
   inkscape:connector-curvature="0"
   style="fill:#008000" />

	</g>

</g>
      <g
         id="g47414"
         style="fill:#008000">
</g>
      <g
         id="g47416"
         style="fill:#008000">
</g>
      <g
         id="g47418"
         style="fill:#008000">
</g>
      <g
         id="g47420"
         style="fill:#008000">
</g>
      <g
         id="g47422"
         style="fill:#008000">
</g>
      <g
         id="g47424"
         style="fill:#008000">
</g>
      <g
         id="g47426"
         style="fill:#008000">
</g>
      <g
         id="g47428"
         style="fill:#008000">
</g>
      <g
         id="g47430"
         style="fill:#008000">
</g>
      <g
         id="g47432"
         style="fill:#008000">
</g>
      <g
         id="g47434"
         style="fill:#008000">
</g>
      <g
         id="g47436"
         style="fill:#008000">
</g>
      <g
         id="g47438"
         style="fill:#008000">
</g>
      <g
         id="g47440"
         style="fill:#008000">
</g>
      <g
         id="g47442"
         style="fill:#008000">
</g>
    </g>
  </g>
  <style
     id="style2996"
     type="text/css">
	.st0{fill:#DAF4CC;}
	.st1{fill:#6AAF4E;stroke:#424242;stroke-width:1.779;stroke-miterlimit:10;}
	.st2{fill:#FFFFFF;stroke:#424242;stroke-width:1.779;stroke-miterlimit:10;}
	.st3{fill:#424242;}
	.st4{fill:#FFFFFF;stroke:#424242;stroke-width:1.7265;stroke-miterlimit:10;}
	.st5{fill:none;stroke:#424242;stroke-width:2;stroke-miterlimit:10;}
	.st6{fill:#FFFFFF;stroke:#424242;stroke-width:2;stroke-miterlimit:10;}
	.st7{fill:#87D05F;}
	.st8{fill:#67B145;}
	.st9{fill:none;stroke:#424242;stroke-width:7;stroke-miterlimit:10;}
	.st10{fill:#FFFFFF;}
	.st11{fill:#6AAF4E;stroke:#6AAF4E;stroke-miterlimit:10;}
	.st12{fill:#424242;stroke:#424242;stroke-miterlimit:10;}
	.st13{fill:#6AAF4E;}
	.st14{fill:none;stroke:#6AAF4E;stroke-width:5;stroke-miterlimit:10;}
	.st15{fill:#FFFFFF;stroke:#6AAF4E;stroke-width:5;stroke-miterlimit:10;}
	.st16{fill:#68B245;}
	.st17{fill:none;stroke:#68B245;stroke-width:5;stroke-miterlimit:10;}
	.st18{fill:none;stroke:#6AAF4E;stroke-width:5;stroke-linecap:square;stroke-linejoin:round;stroke-miterlimit:10;}
	.st19{display:none;}
	.st20{display:inline;fill:none;stroke:#6AAF4E;stroke-width:4.1715;stroke-miterlimit:10;}
	.st21{display:inline;fill:none;stroke:#6AAF4E;stroke-width:4;stroke-miterlimit:10;}
	.st22{display:inline;fill:#6AAF4E;}
	.st23{fill:none;stroke:#6AAF4E;stroke-width:4.2239;stroke-miterlimit:10;}
	.st24{fill:#4BA647;}
</style>
</svg>
