<?xml version="1.0" encoding="UTF-8" standalone="no"?>
<!-- Created with Inkscape (http://www.inkscape.org/) -->

<svg
   xmlns:dc="http://purl.org/dc/elements/1.1/"
   xmlns:cc="http://creativecommons.org/ns#"
   xmlns:rdf="http://www.w3.org/1999/02/22-rdf-syntax-ns#"
   xmlns:svg="http://www.w3.org/2000/svg"
   xmlns="http://www.w3.org/2000/svg"
   xmlns:sodipodi="http://sodipodi.sourceforge.net/DTD/sodipodi-0.dtd"
   xmlns:inkscape="http://www.inkscape.org/namespaces/inkscape"
   width="800mm"
   height="600mm"
   viewBox="0 0 2834.6457 2125.9842"
   id="svg2"
   version="1.1"
   inkscape:version="0.92.4 (5da689c313, 2019-01-14)"
   sodipodi:docname="04-why.svg">
  <defs
     id="defs4">
    <marker
       inkscape:stockid="Arrow1Mend"
       orient="auto"
       refY="0"
       refX="0"
       id="Arrow1Mend"
       style="overflow:visible"
       inkscape:isstock="true">
      <path
         id="path4420"
         d="M 0,0 5,-5 -12.5,0 5,5 Z"
         style="fill:#00bff0;fill-opacity:1;fill-rule:evenodd;stroke:#00bff0;stroke-width:1.00000003pt;stroke-opacity:1"
         transform="matrix(-0.4,0,0,-0.4,-4,0)"
         inkscape:connector-curvature="0" />
    </marker>
    <linearGradient
       id="b"
       y2="1.85"
       x2="57.903"
       y1="1.85"
       x1="57.903"
       gradientTransform="scale(0)"
       gradientUnits="userSpaceOnUse">
      <stop
         id="stop4879"
         offset="0%"
         stop-color="#41873F" />
      <stop
         id="stop4881"
         offset="32.88%"
         stop-color="#418B3D" />
      <stop
         id="stop4883"
         offset="63.52%"
         stop-color="#419637" />
      <stop
         id="stop4885"
         offset="93.19%"
         stop-color="#3FA92D" />
      <stop
         id="stop4887"
         offset="100%"
         stop-color="#3FAE2A" />
    </linearGradient>
    <path
       d="m 57.903,1.85 a 5.957,5.957 0 0 0 -5.894,0 L 3.352,29.933 c -1.85,1.04 -2.89,3.005 -2.89,5.085 v 56.286 c 0,2.08 1.156,4.045 2.89,5.085 l 48.657,28.085 a 5.957,5.957 0 0 0 5.894,0 l 48.658,-28.085 c 1.849,-1.04 2.89,-3.005 2.89,-5.085 V 35.019 c 0,-2.08 -1.157,-4.045 -2.89,-5.085 z"
       id="a"
       inkscape:connector-curvature="0" />
    <linearGradient
       id="d"
       y2="-4.3421721"
       x2="102.80521"
       y1="22.882973"
       x1="59.834877"
       gradientTransform="scale(1.3193853,0.75792869)"
       gradientUnits="userSpaceOnUse">
      <stop
         id="stop4891"
         offset="13.76%"
         stop-color="#41873F" />
      <stop
         id="stop4893"
         offset="40.32%"
         stop-color="#54A044" />
      <stop
         id="stop4895"
         offset="71.36%"
         stop-color="#66B848" />
      <stop
         id="stop4897"
         offset="90.81%"
         stop-color="#6CC04A" />
    </linearGradient>
    <linearGradient
       id="e"
       y2="1.3961854"
       x2="60.624519"
       y1="1.3961854"
       x1="5.4630942"
       gradientTransform="scale(1.6318162,0.6128141)"
       gradientUnits="userSpaceOnUse">
      <stop
         id="stop4900"
         offset="9.192%"
         stop-color="#6CC04A" />
      <stop
         id="stop4902"
         offset="28.64%"
         stop-color="#66B848" />
      <stop
         id="stop4904"
         offset="59.68%"
         stop-color="#54A044" />
      <stop
         id="stop4906"
         offset="86.24%"
         stop-color="#41873F" />
    </linearGradient>
    <linearGradient
       id="f"
       y2="66.989662"
       x2="120.27905"
       y1="66.989662"
       x1="-1.4223322"
       gradientTransform="scale(0.92514783,1.0809083)"
       gradientUnits="userSpaceOnUse">
      <stop
         id="stop4909"
         offset="9.192%"
         stop-color="#6CC04A" />
      <stop
         id="stop4911"
         offset="28.64%"
         stop-color="#66B848" />
      <stop
         id="stop4913"
         offset="59.68%"
         stop-color="#54A044" />
      <stop
         id="stop4915"
         offset="86.24%"
         stop-color="#41873F" />
    </linearGradient>
    <linearGradient
       id="g"
       y2="68.39164"
       x2="169.56171"
       y1="68.39164"
       x1="117.94696"
       gradientTransform="scale(0.65492335,1.5268962)"
       gradientUnits="userSpaceOnUse">
      <stop
         id="stop4918"
         offset="9.192%"
         stop-color="#6CC04A" />
      <stop
         id="stop4920"
         offset="28.64%"
         stop-color="#66B848" />
      <stop
         id="stop4922"
         offset="59.68%"
         stop-color="#54A044" />
      <stop
         id="stop4924"
         offset="86.24%"
         stop-color="#41873F" />
    </linearGradient>
    <linearGradient
       id="h"
       y2="157.8152"
       x2="81.332504"
       y1="157.8152"
       x1="5.5872092"
       gradientTransform="scale(1.3178092,0.75883522)"
       gradientUnits="userSpaceOnUse">
      <stop
         id="stop4927"
         offset="9.192%"
         stop-color="#6CC04A" />
      <stop
         id="stop4929"
         offset="28.64%"
         stop-color="#66B848" />
      <stop
         id="stop4931"
         offset="59.68%"
         stop-color="#54A044" />
      <stop
         id="stop4933"
         offset="86.24%"
         stop-color="#41873F" />
    </linearGradient>
    <linearGradient
       id="i"
       y2="213.82344"
       x2="45.65274"
       y1="61.090031"
       x1="92.367607"
       gradientTransform="scale(1.3178092,0.75883522)"
       gradientUnits="userSpaceOnUse">
      <stop
         id="stop4936"
         offset="0%"
         stop-color="#41873F" />
      <stop
         id="stop4938"
         offset="32.88%"
         stop-color="#418B3D" />
      <stop
         id="stop4940"
         offset="63.52%"
         stop-color="#419637" />
      <stop
         id="stop4942"
         offset="93.19%"
         stop-color="#3FA92D" />
      <stop
         id="stop4944"
         offset="100%"
         stop-color="#3FAE2A" />
    </linearGradient>
    <path
       inkscape:connector-curvature="0"
       id="a-8"
       d="m 57.903,1.85 a 5.957,5.957 0 0 0 -5.894,0 L 3.352,29.933 c -1.85,1.04 -2.89,3.005 -2.89,5.085 v 56.286 c 0,2.08 1.156,4.045 2.89,5.085 l 48.657,28.085 a 5.957,5.957 0 0 0 5.894,0 l 48.658,-28.085 c 1.849,-1.04 2.89,-3.005 2.89,-5.085 V 35.019 c 0,-2.08 -1.157,-4.045 -2.89,-5.085 z" />
    <linearGradient
       x1="93.627998"
       y1="24.229"
       gradientTransform="matrix(0.9973,-0.0732,0.0732,0.9973,-6.3155,6.9983)"
       x2="93.627998"
       gradientUnits="userSpaceOnUse"
       y2="122.5"
       id="SVGID_1_">
      <stop
         id="stop9977"
         offset="0"
         style="stop-color:#C56FB4" />
      <stop
         id="stop9979"
         offset="1"
         style="stop-color:#9C2683" />
    </linearGradient>
    <linearGradient
       x1="123.84"
       y1="53.573002"
       x2="123.84"
       gradientUnits="userSpaceOnUse"
       y2="151.85001"
       id="SVGID_2_"
       gradientTransform="matrix(0.9375,0,0,0.9375,1331.7613,575.3704)">
      <stop
         id="stop9986"
         offset="0"
         style="stop-color:#8BC53F" />
      <stop
         id="stop9988"
         offset="1"
         style="stop-color:#6C9C31" />
    </linearGradient>
    <clipPath
       id="clipPath3927">
      <path
         id="path3929"
         style="fill:none;stroke:#ffffff;stroke-width:103.87999725"
         d="m 1486.1,1425.8 a 1043.75,1033.8495 0 1 1 -2087.5,0 1043.75,1033.8495 0 1 1 2087.5,0 z"
         transform="matrix(0.89346,0,0,-0.90205,632.34,2313.7)"
         inkscape:connector-curvature="0" />
    </clipPath>
    <linearGradient
       gradientUnits="userSpaceOnUse"
       gradientTransform="scale(0.80536275,1.2416765)"
       x1="167.51685"
       y1="24.393208"
       x2="160.31"
       y2="320.03421"
       id="linearGradient-1">
      <stop
         stop-color="#D9D8DC"
         offset="0%"
         id="stop1963" />
      <stop
         stop-color="#FFFFFF"
         stop-opacity="0.385275136"
         offset="100%"
         id="stop1965" />
    </linearGradient>
    <linearGradient
       gradientUnits="userSpaceOnUse"
       gradientTransform="scale(0.70913123,1.4101762)"
       x1="199.03606"
       y1="21.412943"
       x2="140.0712"
       y2="278.40781"
       id="linearGradient-2">
      <stop
         stop-color="#8D67AF"
         stop-opacity="0.671931612"
         offset="0%"
         id="stop1968" />
      <stop
         stop-color="#9F8DAF"
         offset="100%"
         id="stop1970" />
    </linearGradient>
    <linearGradient
       gradientUnits="userSpaceOnUse"
       gradientTransform="scale(0.76164467,1.3129482)"
       x1="206.42825"
       y1="100.91758"
       x2="206.42825"
       y2="294.31174"
       id="linearGradient-3">
      <stop
         stop-color="#26053D"
         stop-opacity="0.761633832"
         offset="0%"
         id="stop1973" />
      <stop
         stop-color="#B7B4B4"
         stop-opacity="0.277683424"
         offset="100%"
         id="stop1975" />
    </linearGradient>
    <linearGradient
       gradientUnits="userSpaceOnUse"
       gradientTransform="scale(1.1473049,0.87160792)"
       x1="23.483095"
       y1="171.71753"
       x2="112.93068"
       y2="351.72263"
       id="linearGradient-4">
      <stop
         stop-color="#91739F"
         stop-opacity="0.459550498"
         offset="0%"
         id="stop1978" />
      <stop
         stop-color="#32054F"
         stop-opacity="0.539911685"
         offset="100%"
         id="stop1980" />
    </linearGradient>
    <linearGradient
       gradientUnits="userSpaceOnUse"
       gradientTransform="scale(0.88068721,1.1354769)"
       x1="226.7811"
       y1="317.25201"
       x2="67.803513"
       y2="147.4131"
       id="linearGradient-5">
      <stop
         stop-color="#463D49"
         stop-opacity="0.331182065"
         offset="0%"
         id="stop1983" />
      <stop
         stop-color="#340A50"
         stop-opacity="0.821388134"
         offset="100%"
         id="stop1985" />
    </linearGradient>
    <linearGradient
       gradientUnits="userSpaceOnUse"
       gradientTransform="scale(0.65796714,1.5198327)"
       x1="248.0164"
       y1="88.755203"
       x2="200.70529"
       y2="255.00511"
       id="linearGradient-6">
      <stop
         stop-color="#715383"
         stop-opacity="0.145238904"
         offset="0%"
         id="stop1988" />
      <stop
         stop-color="#F4F4F4"
         stop-opacity="0.23363904"
         offset="100%"
         id="stop1990" />
    </linearGradient>
    <linearGradient
       gradientUnits="userSpaceOnUse"
       gradientTransform="scale(0.5695618,1.7557357)"
       x1="307.5639"
       y1="109.963"
       x2="156.45103"
       y2="81.526764"
       id="linearGradient-7">
      <stop
         stop-color="#A5A1A8"
         stop-opacity="0.356091486"
         offset="0%"
         id="stop1993" />
      <stop
         stop-color="#370C50"
         stop-opacity="0.581974638"
         offset="100%"
         id="stop1995" />
    </linearGradient>
    <clipPath
       id="p.0">
      <path
         style="clip-rule:nonzero"
         inkscape:connector-curvature="0"
         d="M 0,0 H 437 V 487 H 0 Z"
         id="path19598" />
    </clipPath>
  </defs>
  <sodipodi:namedview
     id="base"
     pagecolor="#dacfe5"
     bordercolor="#666666"
     borderopacity="1.0"
     inkscape:pageopacity="1"
     inkscape:pageshadow="2"
     inkscape:zoom="0.13"
     inkscape:cx="-337.1521"
     inkscape:cy="1104.3001"
     inkscape:document-units="px"
     inkscape:current-layer="layer1"
     showgrid="false"
     inkscape:window-width="1600"
     inkscape:window-height="839"
     inkscape:window-x="0"
     inkscape:window-y="27"
     inkscape:window-maximized="1"
     fit-margin-top="0"
     fit-margin-left="0"
     fit-margin-right="0"
     fit-margin-bottom="0"
     showguides="true"
     inkscape:guide-bbox="true" />
  <metadata
     id="metadata7">
    <rdf:RDF>
      <cc:Work
         rdf:about="">
        <dc:format>image/svg+xml</dc:format>
        <dc:type
           rdf:resource="http://purl.org/dc/dcmitype/StillImage" />
        <dc:title />
      </cc:Work>
    </rdf:RDF>
  </metadata>
  <g
     inkscape:label="Calque 1"
     inkscape:groupmode="layer"
     id="layer1"
     transform="translate(-1409.7967,1126.924)">
    <text
       xml:space="preserve"
       style="font-style:normal;font-weight:normal;font-size:21.18445587px;line-height:125%;font-family:sans-serif;letter-spacing:0px;word-spacing:0px;fill:#544568;fill-opacity:1;stroke:none;stroke-width:0.52961141px;stroke-linecap:butt;stroke-linejoin:miter;stroke-opacity:1"
       x="1802.6155"
       y="554.81628"
       id="text1704"><tspan
         sodipodi:role="line"
         id="tspan1702"
         x="1802.6155"
         y="573.55957"
         style="fill:#544568;fill-opacity:1;stroke-width:0.52961141px" /></text>
    <text
       xml:space="preserve"
       style="font-style:normal;font-weight:normal;font-size:21.18445587px;line-height:1.25;font-family:sans-serif;letter-spacing:0px;word-spacing:0px;fill:#544568;fill-opacity:1;stroke:none;stroke-width:0.52961141"
       x="2385.6741"
       y="-108.21499"
       id="text2626"><tspan
         sodipodi:role="line"
         id="tspan2624"
         x="2385.6741"
         y="-89.47171"
         style="fill:#544568;fill-opacity:1;stroke-width:0.52961141" /></text>
    <text
       xml:space="preserve"
       style="font-style:normal;font-variant:normal;font-weight:bold;font-stretch:normal;font-size:66.9796524px;line-height:1.25;font-family:'Courier 10 Pitch';-inkscape-font-specification:'Courier 10 Pitch Bold';text-align:center;letter-spacing:0px;word-spacing:0px;text-anchor:middle;fill:#544568;fill-opacity:1;stroke:none;stroke-width:1.67449105"
       x="2847.7578"
       y="-677.83392"
       id="text1545"><tspan
         sodipodi:role="line"
         x="2847.7578"
         y="-677.83392"
         style="font-style:normal;font-variant:normal;font-weight:bold;font-stretch:normal;font-size:321.5022583px;font-family:'Courier 10 Pitch';-inkscape-font-specification:'Courier 10 Pitch Bold';text-align:center;text-anchor:middle;fill:#544568;fill-opacity:1;stroke-width:1.67449105"
         id="tspan1104">Software</tspan><tspan
         sodipodi:role="line"
         x="2847.7578"
         y="-275.95612"
         style="font-style:normal;font-variant:normal;font-weight:bold;font-stretch:normal;font-size:321.5022583px;font-family:'Courier 10 Pitch';-inkscape-font-specification:'Courier 10 Pitch Bold';text-align:center;text-anchor:middle;fill:#544568;fill-opacity:1;stroke-width:1.67449105"
         id="tspan1750">architecture ?</tspan></text>
    <flowRoot
       xml:space="preserve"
       id="flowRoot1547"
       style="font-style:normal;font-variant:normal;font-weight:normal;font-stretch:normal;font-size:40px;line-height:1.25;font-family:serif;-inkscape-font-specification:serif;letter-spacing:0px;word-spacing:0px;fill:#544568;fill-opacity:1;stroke:none"
       transform="matrix(0.52961137,0,0,0.52961137,1342.34,-347.97881)"><flowRegion
         id="flowRegion1549"
         style="fill:#544568;fill-opacity:1"><rect
           id="rect1551"
           width="297.17355"
           height="77.947159"
           x="462.81128"
           y="567.49408"
           style="fill:#544568;fill-opacity:1" /></flowRegion><flowPara
         id="flowPara1553" /></flowRoot>    <flowRoot
       xml:space="preserve"
       id="flowRoot1559"
       style="font-style:normal;font-variant:normal;font-weight:normal;font-stretch:normal;font-size:40px;line-height:1.25;font-family:serif;-inkscape-font-specification:serif;letter-spacing:0px;word-spacing:0px;fill:#544568;fill-opacity:1;stroke:none"
       transform="matrix(0.5649188,0,0,0.5649188,953.31243,276.01859)"><flowRegion
         id="flowRegion1561"
         style="fill:#544568;fill-opacity:1"><rect
           id="rect1563"
           width="925.62256"
           height="516.39996"
           x="1081.5168"
           y="431.08655"
           style="fill:#544568;fill-opacity:1" /></flowRegion><flowPara
         id="flowPara1565" /></flowRoot>    <flowRoot
       xml:space="preserve"
       id="flowRoot1787"
       style="font-style:normal;font-variant:normal;font-weight:normal;font-stretch:normal;font-size:40px;line-height:1.25;font-family:serif;-inkscape-font-specification:serif;letter-spacing:0px;word-spacing:0px;fill:#000000;fill-opacity:1;stroke:none"
       transform="matrix(0.5649188,0,0,0.5649188,953.31243,276.01859)"><flowRegion
         id="flowRegion1789"><rect
           id="rect1791"
           width="1096.132"
           height="297.17355"
           x="906.13574"
           y="1585.6788" /></flowRegion><flowPara
         id="flowPara1793" /></flowRoot>    <g
       clip-path="url(#p.0)"
       id="g19747"
       transform="matrix(1.6669567,0,0,1.6669567,2499.8406,28.598679)">
      <path
         style="fill:#000000;fill-opacity:0;fill-rule:nonzero"
         inkscape:connector-curvature="0"
         d="M 0,0 H 437.5013 V 487.5013 H 0 Z"
         id="path19601" />
      <path
         style="fill:#ccb5ff;fill-rule:nonzero"
         inkscape:connector-curvature="0"
         d="m 113.57834,136.4351 v 0 C 101.85473,84.393115 137.79337,31.96464 193.84953,19.33282 v 0 C 249.90572,6.701005 304.85208,38.649264 316.57568,90.69125 v 0 c 11.72364,52.04198 -24.21502,104.47047 -80.27118,117.10229 v 0 C 180.24832,220.42534 125.30195,188.47709 113.57834,136.4351 Z"
         id="path19603" />
      <path
         style="fill:#ccb5ff;fill-rule:nonzero"
         inkscape:connector-curvature="0"
         d="m 215.3016,136.54948 v 0 C 204.63792,89.212657 236.9606,41.60693 287.4963,30.219104 v 0 c 50.53571,-11.387823 100.14761,17.754597 110.81128,65.091415 v 0 c 10.6637,47.336831 -21.659,94.942561 -72.1947,106.330371 v 0 C 275.57717,213.02873 225.96527,183.8863 215.3016,136.54948 Z"
         id="path19605" />
      <path
         style="fill:#ccb5ff;fill-rule:nonzero"
         inkscape:connector-curvature="0"
         d="m 165.78766,267.2877 v 0 c -11.72362,-52.04198 24.21503,-104.47046 80.27119,-117.10226 v 0 c 56.05617,-12.63183 111.00255,19.31643 122.72615,71.35843 v 0 c 11.72364,52.04199 -24.21499,104.47046 -80.27118,117.10226 v 0 C 232.45764,351.27797 177.51127,319.32969 165.78766,267.2877 Z"
         id="path19607" />
      <path
         style="fill:#ccb5ff;fill-rule:nonzero"
         inkscape:connector-curvature="0"
         d="m 15.263966,181.62639 v 0 C 5.581011,138.64304 33.358601,95.76984 77.306954,85.86642 v 0 c 21.104744,-4.755783 43.192256,-1.11705 61.403556,10.11573 18.21129,11.23278 31.0546,29.13946 35.70452,49.78081 v 0 c 9.68295,42.98335 -18.09464,85.85655 -62.04299,95.75996 v 0 C 68.423685,251.42633 24.946925,224.60974 15.263975,181.62639 Z"
         id="path19609" />
      <path
         style="fill:#ccb5ff;fill-rule:nonzero"
         inkscape:connector-curvature="0"
         d="m 39.245556,284.10065 v 0 C 27.52194,232.05866 63.460579,179.63019 119.51675,166.99837 v 0 c 56.05617,-12.63182 111.00255,19.31644 122.72615,71.35843 v 0 c 11.72362,52.04198 -24.21503,104.47047 -80.27119,117.10228 v 0 C 105.91554,368.09088 50.969166,336.14264 39.245556,284.10065 Z"
         id="path19611" />
      <path
         style="fill:#ccb5ff;fill-rule:nonzero"
         inkscape:connector-curvature="0"
         d="m 142.73221,332.86642 v 0 c -8.3575,-37.09955 16.95569,-74.40549 56.53856,-83.32517 v 0 c 39.58289,-8.91969 78.44624,13.9246 86.80373,51.02411 v 0 c 8.35748,37.09952 -16.95569,74.40546 -56.53857,83.32514 v 0 c -39.58287,8.91971 -78.44621,-13.92456 -86.80371,-51.02408 z"
         id="path19613" />
      <path
         style="fill:#000000;fill-opacity:0;fill-rule:nonzero"
         inkscape:connector-curvature="0"
         d="m 168.89177,217.54646 h 62.58269 v 140.18898 h -62.58269 z"
         id="path19615" />
      <path
         style="fill:#8e7cc3;fill-rule:nonzero"
         inkscape:connector-curvature="0"
         d="m 192.92302,267.43707 q 18.21875,0 25.92187,6.1875 7.71875,6.17187 7.71875,15.21875 0,11.4375 -9.82812,18.625 -3.73438,2.79687 -9.04688,5.04687 l -2.14062,0.9375 q -0.92188,0.39063 -1.79688,5.51563 -0.85937,5.125 -0.85937,7.375 -0.65625,0.67187 -3.78125,1.54687 -3.125,0.85938 -5.1875,0.85938 -2.0625,0 -3.125,-0.26563 -1.46875,-2.40625 -1.46875,-10.375 0,-7.98437 0.67187,-10.25 21,-5.04687 21,-17.01562 0,-10.375 -19.14062,-10.375 -6.78125,0 -9.84375,1.32812 -0.79688,-1.32812 -0.79688,-5.57812 0,-4.26563 1.1875,-7.1875 3.59375,-1.59375 10.51563,-1.59375 z m -3.79688,85.84375 q -2.59375,-2.59375 -2.59375,-6.3125 0,-3.73438 2.59375,-6.3125 2.59375,-2.59375 6.3125,-2.59375 3.73438,0 6.32813,2.59375 2.59375,2.57812 2.59375,6.3125 0,3.71875 -2.59375,6.3125 -2.59375,2.59375 -6.32813,2.59375 -3.71875,0 -6.3125,-2.59375 z"
         id="path19617" />
      <path
         style="fill:#000000;fill-opacity:0;fill-rule:nonzero"
         inkscape:connector-curvature="0"
         d="M 257.81696,14.97262 391.36026,47.571047 357.94293,183.63404 224.39964,151.03562 Z"
         id="path19619" />
      <path
         style="fill:#8e7cc3;fill-rule:nonzero"
         inkscape:connector-curvature="0"
         d="m 302.45047,76.02093 q -0.8497,3.459686 -3.26187,5.878532 -2.397,2.422554 -5.38071,4.155037 -2.96478,1.721016 -6.23218,2.708741 -3.25219,0.991424 -4.36984,1.15287 -0.37359,3.093391 -1.54379,7.858047 -0.3876,1.578102 -0.95142,3.611783 -0.54867,2.03738 -1.65521,3.92249 -1.0914,1.88882 -3.09143,3.15373 -2.00006,1.26492 -4.91449,0.55349 -5.02432,-1.22646 -5.53613,-6.61079 -0.1474,-1.69261 0.16418,-4.206035 0.31534,-2.528603 0.80856,-5.126366 0.4932,-2.597763 1.07831,-4.980095 0.58884,-2.397499 0.96897,-3.945251 0.33169,-1.350495 0.97912,-3.331589 0.66266,-1.977394 2.05606,-3.261719 1.45786,-1.284675 3.8393,-2.006149 2.38516,-0.736641 4.62625,-1.476288 2.25629,-0.735939 3.73096,-1.630501 1.47467,-0.894562 1.79144,-2.184356 0.25342,-1.03183 -0.0313,-2.034203 -0.28476,-1.002373 -0.98975,-1.866058 -0.70496,-0.863694 -1.71616,-1.52871 -1.01116,-0.665008 -2.13446,-0.939205 -2.94476,-0.718834 -4.86447,-0.17416 -1.91967,0.544678 -3.56106,1.462883 -1.62619,0.921906 -3.48697,1.947388 -1.84561,1.02919 -4.51718,0.377052 -2.91443,-0.711426 -4.78702,-3.372009 -1.87256,-2.66058 -1.11975,-5.725739 1.04349,-4.248741 4.20663,-6.580776 3.18204,-2.343506 6.98468,-3.152313 3.8064,-0.823978 7.65866,-0.655647 3.85227,0.168335 6.78189,0.883461 4.0225,0.98191 7.78714,3.734424 3.76838,2.737339 6.4527,6.416352 2.70328,3.667541 3.99976,8.149719 1.29648,4.482177 0.23062,8.82196 z m -24.3465,40.95725 q -0.53293,2.16989 -1.96444,3.41275 -1.42777,1.22768 -3.08197,1.805 -1.65046,0.56214 -3.4397,0.57572 -1.793,0.0288 -3.31091,-0.34178 -2.61084,-0.63731 -4.75739,-2.641 -2.14282,-2.01886 -1.30429,-5.43302 0.50311,-2.0485 1.92688,-3.32541 1.42752,-1.29209 3.13071,-1.93787 1.70691,-0.66095 3.52624,-0.73152 1.82306,-0.0858 3.37134,0.29219 2.65637,0.64844 4.69348,2.77016 2.05228,2.12543 1.21005,5.55478 z"
         id="path19621" />
      <path
         style="fill:#000000;fill-opacity:0;fill-rule:nonzero"
         inkscape:connector-curvature="0"
         d="m 135.53667,56.726803 133.70079,31.999996 -32.47244,136.346471 -133.70078,-32 z"
         id="path19623" />
      <path
         style="fill:#8e7cc3;fill-rule:nonzero"
         inkscape:connector-curvature="0"
         d="m 154.09001,230.31464 -10.40767,-2.69983 q -2.68965,-0.64375 -4.86413,-0.95532 l -2.06664,-0.49463 q -2.3354,-3.88469 -1.09012,-9.11345 l 2.22321,-7.58137 q 6.68617,-16.13692 13.9971,-22.75766 2.02066,-2.27979 7.10831,-6.44431 14.64776,-11.93391 15.79893,-16.76747 0.71677,-3.00958 -3.84102,-6.06053 -1.63016,-1.45053 -2.35956,-1.62511 -0.7142,-0.17094 -1.83731,0.0262 -1.11947,0.18193 -1.89026,1.05783 -7.00706,7.03085 -12.34971,7.6801 -5.27518,-0.78058 -8.05602,-1.44615 l -20.33188,-5.87842 0.98102,-4.11916 q 4.85109,-16.5922 19.76932,-27.03147 14.91823,-10.43928 32.59615,-7.10796 2.28447,0.32184 4.59424,0.87466 16.98892,4.06614 26.87637,17.92 9.88746,13.85388 6.03938,30.01136 -3.4716,14.57667 -16.58868,24.80439 -2.9578,2.50534 -7.7052,5.57846 -4.72858,3.06157 -7.04154,4.95006 -8.30456,7.21837 -14.07638,20.05562 -1.56482,2.72627 -1.74221,3.47107 -0.17376,0.72958 -0.1174,1.36966 l -1.04255,4.37756 q -7.05967,-0.77388 -12.57575,-2.0941 z m -27.71508,29.37125 q 0.43868,-7.23731 2.19801,-14.62446 l 4.01579,-14.7035 q 7.46152,-1.25069 17.30841,1.10608 9.84689,2.35675 14.97623,6.37994 l -2.11031,7.51201 q -4.50204,14.58713 -5.16452,17.36868 l -1.04617,4.39276 -4.4068,-1.05471 -21.83492,-5.43485 z"
         id="path19625" />
      <path
         style="fill:#000000;fill-opacity:0;fill-rule:nonzero"
         inkscape:connector-curvature="0"
         d="M 17.365566,92.69506 150.08998,56.726558 186.46792,192.06514 53.743511,228.03364 Z"
         id="path19627" />
      <path
         style="fill:#8e7cc3;fill-rule:nonzero"
         inkscape:connector-curvature="0"
         d="m 93.45717,129.71072 q 1.001755,1.80067 0.938919,2.53 -0.06284,0.72932 -0.141899,1.3983 -0.431862,1.28261 -0.438942,1.73781 -0.0071,0.4552 -0.183487,0.76202 -0.143951,0.42754 -0.30413,0.79472 -0.16018,0.36718 -0.304131,0.79471 -0.03748,1.30525 -0.666527,2.57656 -0.629059,1.2713 -0.837913,1.45739 -0.07906,0.66898 -0.327439,1.18956 -0.248375,0.5206 -0.480529,1.10155 -0.190568,1.21722 -1.072579,2.75134 -0.334518,1.64476 -1.216522,3.17887 -0.882011,1.53412 -1.151634,3.4203 -1.179062,1.87364 -1.416237,3.88054 -0.738053,1.10658 -0.719773,2.13769 -0.7705,0.98586 -0.961067,2.20308 -0.190567,1.21723 -0.961067,2.2031 -0.246323,1.49135 -0.859154,2.823 -0.612838,1.33166 -0.891601,2.7023 -0.357826,2.03959 -1.054291,3.78244 0.760452,1.86606 1.393173,4.22001 0.632729,2.35396 1.184334,4.40612 0.129791,0.48286 0.127274,1.19584 -0.0025,0.71299 -0.387757,1.20591 -1.480232,0.27163 -1.568428,0.42504 -0.482597,0.13079 -0.700584,-0.19867 -0.217987,-0.32945 -0.700585,-0.19866 -0.482589,0.13078 -0.76342,0.53067 -0.280822,0.39987 -0.522117,0.46525 -0.603241,0.16348 -1.939515,0.008 -0.835395,0.74444 -1.921226,1.0387 -1.206482,0.32695 -1.971962,-0.11314 -0.361946,0.0981 -0.47802,0.38856 -0.116081,0.29047 -0.960617,0.51934 -0.844536,0.22888 -1.85131,-0.14583 -1.284638,-2.37155 -1.780488,-4.69785 -0.495857,-2.32628 -1.506744,-4.6425 -0.380226,-0.93303 -0.607361,-1.77805 -0.227135,-0.845 -0.542465,-1.5366 -0.315331,-0.69159 -0.510017,-1.41588 1.50444,-4.03395 2.674804,-8.10689 1.170372,-4.07292 2.980995,-7.93083 1.402077,-2.97014 2.711373,-6.04465 1.309303,-3.07451 2.711372,-6.04464 0.343666,-1.1292 0.93319,-2.06603 0.589531,-0.93681 0.812545,-2.03332 -0.403533,-0.53818 -1.523872,-1.33539 -1.120338,-0.79721 -1.820923,-0.99588 -0.459289,-0.26406 -0.930229,-0.33071 -0.47094,-0.0666 -0.897781,-0.20997 -1.345406,-0.67147 -1.542603,-0.68277 -0.197197,-0.0113 -0.47094,-0.0666 -0.700584,-0.19867 -1.674911,-0.45266 -0.974327,-0.25399 -2.041428,-0.61236 -1.067093,-0.35835 -1.936996,-0.70539 -0.869904,-0.34705 -1.329193,-0.6111 -1.141587,0.56839 -1.415329,0.51306 -0.858704,1.13927 -1.636284,2.58032 -0.777584,1.44107 -1.023903,2.93242 -0.956047,0.77711 -1.234814,2.14775 -0.6823,0.83246 -0.970207,1.68753 -0.28791,0.85507 -0.84956,1.65483 -0.705608,1.22728 -1.123306,1.5995 -0.417698,0.37221 -0.817112,1.77555 -0.38525,0.49293 -0.75428,1.04622 -0.369026,0.55328 -0.448086,1.22226 -0.505897,0.52562 -1.127872,1.34172 -0.621979,0.8161 -1.345868,1.01228 -1.17815,-1.49385 -2.384632,-1.16689 -1.039222,-0.49542 -1.048362,-1.01098 -0.0091,-0.51557 -0.491738,-0.38478 -0.909431,-0.0126 -1.220192,-0.44637 -0.31076,-0.43382 -1.034652,-0.23765 -2.004406,-0.23386 -3.479607,-1.38817 0.255459,-0.9758 0.148975,-1.8535 0.626549,-0.55832 0.608265,-1.58943 0.561653,-0.79976 1.318444,-2.55896 0.756786,-1.75919 1.585552,-3.73217 0.828766,-1.97296 1.448684,-3.75981 0.619919,-1.78686 0.875378,-2.76266 1.234814,-2.14775 2.437176,-4.41623 1.202362,-2.26847 2.896461,-4.15217 0.143956,-0.42754 0.84248,-1.19963 0.698521,-0.77209 1.517697,-1.57687 0.819171,-0.80479 1.594242,-1.53287 0.77507,-0.72808 1.192768,-1.1003 1.786419,-0.0956 2.236564,-0.34709 0.450146,-0.2515 1.053387,-0.41498 0.965183,-0.26157 1.480225,-0.27163 1.438636,-0.90791 2.111343,-0.57219 0.672703,0.33574 1.63789,0.0742 1.159874,0.46273 2.00647,1.20461 0.846595,0.74189 1.918266,1.35803 1.957794,1.02354 4.075767,1.6799 2.117966,0.65636 4.196411,1.64721 0.579934,0.23136 1.055451,0.55577 0.475509,0.32442 0.967239,0.7092 0.886124,0.4074 1.756027,0.75444 0.869904,0.34705 1.876679,0.72175 1.619156,0.72679 3.254539,1.51393 1.635376,0.78714 3.319428,1.75536 1.828003,0.54068 3.396431,0.11563 z m -11.677574,64.4223 q 0.644829,0.47279 1.955276,1.73653 1.310456,1.26371 2.653359,2.64816 1.342903,1.38444 2.395836,2.6532 1.052933,1.26875 1.247619,1.99305 0.129784,0.48287 0.303673,0.88901 0.173897,0.40616 0.303681,0.88903 -0.07906,0.66897 -0.540856,1.11788 -0.461799,0.44893 -0.967697,0.97455 -0.997635,0.14086 -1.185684,0.6451 -0.188057,0.50424 -0.178917,1.0198 -1.382881,0.63378 -1.628746,0.4414 -0.245872,-0.1924 -0.487167,-0.127 -0.48259,0.13078 -0.895722,0.76077 -0.413124,0.62999 -0.710174,0.96951 -0.361946,0.0981 -0.76799,0.27289 -0.406044,0.17479 -0.832886,0.0315 -0.826256,1.25998 -1.304276,1.64854 -0.478019,0.38857 -1.048813,0.67276 -0.76548,-0.44009 -1.983161,-1.59945 -1.217682,-1.15937 -1.676972,-1.42342 -1.516792,-1.7906 -3.005699,-3.71826 -1.488915,-1.92766 -3.005707,-3.71826 -0.138931,-0.99842 0.47139,-1.6171 0.610321,-0.61868 1.334213,-0.81485 0.658997,-0.43761 0.738053,-1.10658 0.07906,-0.66896 0.802948,-0.86514 0.682304,-0.83245 1.675361,-1.23108 0.993065,-0.39862 1.401619,-1.2864 1.54512,-0.0302 2.352638,-0.63757 0.807526,-0.60736 1.104569,-0.94688 z"
         id="path19629" />
      <path
         style="fill:#000000;fill-opacity:0;fill-rule:nonzero"
         inkscape:connector-curvature="0"
         d="m 168.89235,28.232492 136.8189,-13.259842 13.44882,139.52756 -136.8189,13.25984 z"
         id="path19631" />
      <path
         style="fill:#8e7cc3;fill-rule:nonzero"
         inkscape:connector-curvature="0"
         d="m 187.96034,70.04123 q -1.86626,0.18087 -3.66208,-4.11908 -1.79584,-4.299942 -2.18861,-8.374809 -0.0899,-0.933174 1.86606,-2.300106 1.95599,-1.366932 6.06811,-2.675956 4.11214,-1.309021 9.04216,-1.786816 19.14468,-1.855415 20.43092,11.488991 0.36579,3.794914 -0.93814,6.715569 -1.30392,2.920646 -3.37384,4.408508 -4.22661,2.889938 -7.96718,3.330948 l -1.51811,0.209923 q 0.0705,0.730987 0.55147,2.301284 0.49655,1.568795 0.61198,2.766365 0.10344,1.073151 -3.48028,2.001305 -3.58524,0.912598 -6.24465,1.170334 -4.07466,0.394897 -5.23228,-1.517975 -1.15762,-1.91288 -1.78125,-8.382896 -0.14691,-1.524185 5.52136,-2.811348 2.09766,-0.548653 3.75311,-1.776566 1.66951,-1.24498 1.48961,-3.111328 -0.17988,-1.866356 -3.18145,-1.575454 -3.00156,0.290893 -6.1502,2.150169 -3.15014,1.843719 -3.61671,1.888938 z m 12.21457,17.12033 q 4.52566,-0.438606 7.03313,0.49575 2.52301,0.932846 2.87681,4.603333 0.57866,6.003433 -8.75262,6.907776 -9.33129,0.904341 -9.90995,-5.099083 -0.57865,-6.003433 8.75263,-6.907776 z"
         id="path19633" />
      <path
         style="fill:#714821;fill-rule:nonzero"
         inkscape:connector-curvature="0"
         d="m 417.96063,215.99738 v 0 c 0,-49.4708 -41.38016,-89.57481 -92.4252,-89.57481 v 0 c -24.5127,0 -48.02139,9.43732 -65.35449,26.23586 -17.33307,16.79853 -27.07071,39.58223 -27.07071,63.33895 v 0 c 0,49.47079 41.38019,89.5748 92.4252,89.5748 v 0 c 51.04504,0 92.4252,-40.10401 92.4252,-89.5748 z"
         id="path19635" />
      <path
         style="fill:#ddb374;fill-rule:nonzero"
         inkscape:connector-curvature="0"
         d="m 344.81036,277.55905 h -47.29233 v 68.62991 h 47.29233 z"
         id="path19637" />
      <path
         style="fill:#ddb374;fill-rule:nonzero"
         inkscape:connector-curvature="0"
         d="m 404.8491,238.93964 v 0 c 0,-40.61685 -37.46707,-73.5433 -83.68506,-73.5433 v 0 c -46.21796,0 -83.68503,32.92645 -83.68503,73.5433 v 0 c 0,40.61685 37.46707,73.5433 83.68503,73.5433 v 0 c 46.21799,0 83.68506,-32.92645 83.68506,-73.5433 z"
         id="path19639" />
      <path
         style="fill:#ddb374;fill-rule:nonzero"
         inkscape:connector-curvature="0"
         d="m 404.28427,241.01683 v 0 c 12.71243,-2.06071 21.93939,-12.60111 20.97427,-23.9599 -0.96514,-11.35878 -11.78296,-19.54135 -24.59051,-18.6002 z"
         id="path19641" />
      <path
         style="fill:#000000;fill-rule:nonzero"
         inkscape:connector-curvature="0"
         d="m 307.06168,219.87767 v 0 c 0,-10.14693 -8.31015,-18.37264 -18.56119,-18.37264 v 0 c -4.92273,0 -9.64386,1.93569 -13.12475,5.38123 -3.4809,3.44554 -5.43644,8.11868 -5.43644,12.99141 v 0 c 0,10.14693 8.31012,18.37263 18.56119,18.37263 v 0 c 10.25104,0 18.56119,-8.2257 18.56119,-18.37263 z"
         id="path19643" />
      <path
         style="fill:#ffffff;fill-rule:nonzero"
         inkscape:connector-curvature="0"
         d="m 291.0528,211.52126 v 0 c 0,-3.66382 -2.99219,-6.63394 -6.68326,-6.63394 v 0 c -1.77252,0 -3.47241,0.69893 -4.72577,1.94304 -1.25335,1.24411 -1.95749,2.93147 -1.95749,4.6909 v 0 c 0,3.66383 2.99219,6.63396 6.68326,6.63396 v 0 c 3.69107,0 6.68326,-2.97013 6.68326,-6.63396 z"
         id="path19645" />
      <path
         style="fill-rule:nonzero;stroke:#000000;stroke-width:2;stroke-linecap:butt;stroke-linejoin:round"
         inkscape:connector-curvature="0"
         d="m 291.0528,211.52126 v 0 c 0,-3.66382 -2.99219,-6.63394 -6.68326,-6.63394 v 0 c -1.77252,0 -3.47241,0.69893 -4.72577,1.94304 -1.25335,1.24411 -1.95749,2.93147 -1.95749,4.6909 v 0 c 0,3.66383 2.99219,6.63396 6.68326,6.63396 v 0 c 3.69107,0 6.68326,-2.97013 6.68326,-6.63396 z"
         id="path19647" />
      <path
         style="fill:#c5843b;fill-rule:nonzero"
         inkscape:connector-curvature="0"
         d="m 331.7754,248.46327 -27.12799,0.52522 2.03638,5.76099 6.10202,4.71603 h 8.81839 l 6.78198,-3.14312 z"
         id="path19649" />
      <path
         style="fill:#8a5c29;fill-rule:nonzero"
         inkscape:connector-curvature="0"
         d="m 263.9036,200.27507 -2.42578,-7.61821 12.94397,-9.4828 22.83499,-0.2108 -21.95001,6.27702 z"
         id="path19651" />
      <path
         style="fill:#8a5c29;fill-rule:nonzero"
         inkscape:connector-curvature="0"
         d="m 359.96216,195.46143 2.42581,-7.61823 -12.94397,-9.48278 -22.83499,-0.2108 21.94998,6.27702 z"
         id="path19653" />
      <path
         style="fill:#ffffff;fill-rule:nonzero"
         inkscape:connector-curvature="0"
         d="m 307.06052,292.88843 c -6.20422,-1.5141 12.79471,-18.25076 22.79871,-20.08395 10.00396,-1.83323 41.02496,5.73736 37.22519,9.08468 -3.79981,3.34732 -53.81971,12.5134 -60.0239,10.99927 z"
         id="path19655" />
      <path
         style="fill-rule:nonzero;stroke:#c5843b;stroke-width:2;stroke-linecap:butt;stroke-linejoin:round"
         inkscape:connector-curvature="0"
         d="m 307.06052,292.88843 c -6.20422,-1.5141 12.79471,-18.25076 22.79871,-20.08395 10.00396,-1.83323 41.02496,5.73736 37.22519,9.08468 -3.79981,3.34732 -53.81971,12.5134 -60.0239,10.99927 z"
         id="path19657" />
      <path
         style="fill:#c5843b;fill-rule:nonzero"
         inkscape:connector-curvature="0"
         d="m 369.91245,245.40273 v 0 c 0,-0.80798 -0.85645,-1.463 -1.91296,-1.463 v 0 c -1.05652,0 -1.913,0.65502 -1.913,1.463 v 0 c 0,0.808 0.85648,1.46301 1.913,1.46301 v 0 c 1.05651,0 1.91296,-0.65501 1.91296,-1.46301 z"
         id="path19659" />
      <path
         style="fill:#c5843b;fill-rule:nonzero"
         inkscape:connector-curvature="0"
         d="m 360.8847,251.76294 v 0 c 0,-0.808 -0.85648,-1.46301 -1.91299,-1.46301 v 0 c -1.05649,0 -1.91297,0.65501 -1.91297,1.46301 v 0 c 0,0.80798 0.85648,1.463 1.91297,1.463 v 0 c 1.05651,0 1.91299,-0.65502 1.91299,-1.463 z"
         id="path19661" />
      <path
         style="fill:#c5843b;fill-rule:nonzero"
         inkscape:connector-curvature="0"
         d="m 352.7774,242.10986 v 0 c -0.71387,-0.50182 -1.82495,-0.30876 -2.48172,0.4312 v 0 c -0.65674,0.73994 -0.61044,1.7466 0.10342,2.2484 v 0 c 0.71384,0.5018 1.82496,0.30874 2.48169,-0.4312 v 0 c 0.65674,-0.73996 0.61045,-1.7466 -0.10339,-2.2484 z"
         id="path19663" />
      <path
         style="fill:#c5843b;fill-rule:nonzero"
         inkscape:connector-curvature="0"
         d="m 343.9207,247.1609 v 0 c 0,-0.808 -0.85648,-1.46301 -1.91299,-1.46301 v 0 c -1.05649,0 -1.91297,0.65501 -1.91297,1.46301 v 0 c 0,0.80798 0.85648,1.463 1.91297,1.463 v 0 c 1.05651,0 1.91299,-0.65502 1.91299,-1.463 z"
         id="path19665" />
      <path
         style="fill:#c5843b;fill-rule:nonzero"
         inkscape:connector-curvature="0"
         d="m 364.71066,238.11082 v 0 c 0,-0.80798 -0.85648,-1.463 -1.91299,-1.463 v 0 c -1.05649,0 -1.91297,0.65502 -1.91297,1.463 v 0 c 0,0.808 0.85648,1.46301 1.91297,1.46301 v 0 c 1.05651,0 1.91299,-0.65501 1.91299,-1.46301 z"
         id="path19667" />
      <path
         style="fill:#c5843b;fill-rule:nonzero"
         inkscape:connector-curvature="0"
         d="m 379.64218,249.43872 v 0 c 0.31409,-0.75697 -0.23373,-1.6395 -1.2236,-1.97121 v 0 c -0.9899,-0.33169 -2.04697,0.013 -2.36109,0.77001 v 0 c -0.31408,0.75696 0.23374,1.63949 1.22364,1.97119 v 0 c 0.98986,0.33171 2.04696,-0.013 2.36105,-0.76999 z"
         id="path19669" />
      <path
         style="fill:#c5843b;fill-rule:nonzero"
         inkscape:connector-curvature="0"
         d="m 261.9702,249.97832 v 0 c -0.12973,0.79758 0.61057,1.58047 1.6535,1.74866 v 0 c 1.04294,0.16816 1.99356,-0.34207 2.12329,-1.13965 v 0 c 0.12973,-0.79758 -0.61059,-1.58048 -1.65353,-1.74866 v 0 c -1.04291,-0.16817 -1.99353,0.34206 -2.12326,1.13965 z"
         id="path19671" />
      <path
         style="fill:#c5843b;fill-rule:nonzero"
         inkscape:connector-curvature="0"
         d="m 271.9031,245.1371 v 0 c -0.12973,0.79758 0.61057,1.58047 1.6535,1.74866 v 0 c 1.04294,0.16816 1.99356,-0.34206 2.12329,-1.13965 v 0 c 0.1297,-0.79758 -0.61059,-1.58048 -1.65353,-1.74866 v 0 c -1.04294,-0.16817 -1.99356,0.34207 -2.12326,1.13965 z"
         id="path19673" />
      <path
         style="fill:#c5843b;fill-rule:nonzero"
         inkscape:connector-curvature="0"
         d="m 278.35645,255.95631 v 0 c 0.62412,0.60896 1.75195,0.59526 2.51904,-0.0306 v 0 c 0.76712,-0.62587 0.88303,-1.62692 0.25891,-2.23588 v 0 c -0.62411,-0.60898 -1.75192,-0.59528 -2.51904,0.0306 v 0 c -0.76712,0.62587 -0.88302,1.62691 -0.25891,2.23589 z"
         id="path19675" />
      <path
         style="fill:#c5843b;fill-rule:nonzero"
         inkscape:connector-curvature="0"
         d="m 287.9103,252.38016 v 0 c -0.12973,0.79759 0.6106,1.58049 1.65353,1.74866 v 0 c 1.04291,0.16818 1.99356,-0.34206 2.12326,-1.13964 v 0 c 0.12973,-0.79759 -0.61056,-1.58049 -1.6535,-1.74865 v 0 c -1.04294,-0.16819 -1.99356,0.34205 -2.12329,1.13963 z"
         id="path19677" />
      <path
         style="fill:#c5843b;fill-rule:nonzero"
         inkscape:connector-curvature="0"
         d="m 265.93448,258.00427 v 0 c -0.12973,0.79758 0.6106,1.58047 1.6535,1.74866 v 0 c 1.04294,0.16818 1.99356,-0.34204 2.12329,-1.13965 v 0 c 0.12973,-0.79758 -0.61059,-1.58048 -1.6535,-1.74866 v 0 c -1.04294,-0.16815 -1.99356,0.34207 -2.12329,1.13965 z"
         id="path19679" />
      <path
         style="fill:#c5843b;fill-rule:nonzero"
         inkscape:connector-curvature="0"
         d="m 253.01346,244.44556 v 0 c -0.43159,0.6972 -0.0325,1.65558 0.89142,2.14058 v 0 c 0.92392,0.485 2.02276,0.31296 2.45434,-0.38425 v 0 c 0.43161,-0.6972 0.0325,-1.65558 -0.89141,-2.14058 v 0 c -0.92391,-0.485 -2.02276,-0.31295 -2.45435,0.38425 z"
         id="path19681" />
      <path
         style="fill:#d155ff;fill-rule:nonzero"
         inkscape:connector-curvature="0"
         d="m 363.8058,428.3832 c 2.00961,6.16446 12.29089,29.20953 12.05774,36.98688 -0.23316,7.77734 -4.05643,6.75634 -13.4567,9.67715 -9.40027,2.92084 -27.57919,7.51355 -42.94488,7.84778 -15.36569,0.3342 -39.7511,-3.61768 -49.24936,-5.84253 -9.49823,-2.22485 -6.28433,-1.42169 -7.74015,-7.50656 -1.45581,-6.08487 -0.82894,-24.16885 -0.99475,-29.00263"
         id="path19683" />
      <path
         style="fill:#d155ff;fill-rule:nonzero"
         inkscape:connector-curvature="0"
         d="m 349.18896,320.97375 c -5.95712,2.36264 -7.41382,6.89938 -12.70865,10.7034 -5.29483,3.80405 -12.39722,13.73886 -19.06036,12.12076 -6.66318,-1.61814 -13.83597,-16.60764 -20.91864,-21.82941 -7.08267,-5.2218 -15.81714,-9.95627 -21.57743,-9.50131 -5.76028,0.45496 -10.51705,6.85739 -12.98425,12.23096 -2.46719,5.37359 -2.45889,-3.50742 -1.81891,20.01049 0.63999,23.51795 -10.25764,101.08795 5.65882,121.09714 15.91644,20.00919 71.43744,20.40418 89.83987,-1.04199 18.40247,-21.4462 17.80753,-103.09143 20.5748,-127.63519 2.7673,-24.54373 0.52975,-16.93481 -3.97113,-19.62729 -4.50086,-2.69247 -17.07697,1.10981 -23.03412,3.47245 z"
         id="path19685" />
      <path
         style="fill:#9900ff;fill-rule:nonzero"
         inkscape:connector-curvature="0"
         d="m 246.02347,328.50217 c 2.32417,-6.14825 6.4196,-5.80615 11.2887,-6.83084 4.86908,-1.02472 14.27392,-2.2778 17.92584,0.68259 3.65191,2.96035 3.32138,5.69403 3.98565,17.07962 0.66428,11.38559 -0.22116,37.45764 0,51.23398 0.22117,13.7763 1.21637,23.79589 1.32697,31.42395 0.11057,7.62805 2.98843,11.72567 -0.66348,14.34433 -3.65192,2.61868 -15.4935,2.73367 -21.24802,1.36764 -5.75453,-1.366 -10.84439,-0.68298 -13.27913,-9.56369 -2.43475,-8.88071 -0.99721,-32.10739 -1.32934,-43.72052 -0.33214,-11.61313 -0.99562,-16.6221 -0.66349,-25.95828 0.33214,-9.33618 0.33214,-23.91049 2.6563,-30.05878 z"
         id="path19687" />
      <path
         style="fill:#ddb374;fill-rule:nonzero"
         inkscape:connector-curvature="0"
         d="m 265.66614,337.82312 c -1.49442,-2.76944 -1.1705,-12.84586 -0.92889,-18.9068 0.2416,-6.06097 0.98696,-14.16403 2.37863,-17.45901 1.39163,-3.29499 4.61484,-4.52768 5.97128,-2.31089 1.35645,2.2168 2.06455,9.5473 2.1673,15.61173 0.10278,6.06442 0.0474,16.93063 -1.55069,20.77478 -1.59805,3.84417 -6.54318,5.05963 -8.03763,2.29019 z"
         id="path19689" />
      <path
         style="fill:#ddb374;fill-rule:nonzero"
         inkscape:connector-curvature="0"
         d="m 268.5823,345.99646 c -1.22058,-3.26147 0.86359,-13.27704 2.1702,-19.28638 1.30664,-6.00934 3.5318,-13.90765 5.66955,-16.76959 2.13776,-2.86197 5.99842,-3.06433 7.15692,-0.40216 1.15848,2.66214 0.71115,10.25162 -0.20602,16.37506 -0.91718,6.12348 -2.83185,17.0185 -5.29697,20.36566 -2.46509,3.3472 -8.2731,2.97892 -9.49368,-0.28259 z"
         id="path19691" />
      <path
         style="fill:#ddb374;fill-rule:nonzero"
         inkscape:connector-curvature="0"
         d="m 271.36365,345.88235 c -0.44754,-3.4668 3.32095,-12.95013 5.63156,-18.62894 2.31058,-5.6788 5.79526,-13.04147 8.23197,-15.44391 2.43667,-2.40246 5.87991,-1.83282 6.38821,1.02924 0.5083,2.86206 -1.34918,10.27389 -3.33835,16.14313 -1.98917,5.86926 -5.77777,16.25558 -8.59665,19.07232 -2.81891,2.81675 -7.8692,1.29496 -8.31674,-2.17184 z"
         id="path19693" />
      <path
         style="fill:#ddb374;fill-rule:nonzero"
         inkscape:connector-curvature="0"
         d="m 270.27988,342.6047 c 0.6738,-3.56439 6.96442,-11.09985 10.77942,-15.58832 3.815,-4.48846 9.19678,-10.09091 12.11056,-11.34247 2.91379,-1.25155 5.80478,0.82895 5.3722,3.83316 -0.43259,3.00425 -4.3801,9.37626 -7.96769,14.19217 -3.58758,4.81595 -10.17547,13.21921 -13.55789,14.70346 -3.38241,1.48426 -7.41043,-2.23361 -6.7366,-5.798 z"
         id="path19695" />
      <path
         style="fill:#ddb374;fill-rule:nonzero"
         inkscape:connector-curvature="0"
         d="m 264.7349,335.66364 20.73096,4.7709 -7.74439,31.34604 -20.73096,-4.77093 z"
         id="path19697" />
      <path
         style="fill:#ddb374;fill-rule:nonzero"
         inkscape:connector-curvature="0"
         d="m 275.8636,345.1397 c -2.84976,-0.0757 -9.34409,-5.66641 -13.21893,-9.07239 -3.87488,-3.40594 -8.77126,-8.34909 -10.03026,-11.36343 -1.259,-3.01438 0.0874,-6.63541 2.47624,-6.72263 2.38886,-0.0872 7.74805,3.10929 11.85678,6.19934 4.10877,3.09006 11.30976,8.84781 12.79578,12.34101 1.48602,3.49319 -1.02988,8.69381 -3.87961,8.6181 z"
         id="path19699" />
      <path
         style="fill:#ddb374;fill-rule:nonzero"
         inkscape:connector-curvature="0"
         d="m 279.04477,414.19815 c -2.26572,-2.02817 -10.66336,-3.04895 -15.71579,-3.61133 -5.05246,-0.56238 -11.81847,-0.84808 -14.59883,0.23715 -2.78038,1.08527 -3.89278,4.47406 -2.08344,6.27436 1.80933,1.80029 7.89333,3.5845 12.93944,4.52743 5.04611,0.94293 14.09412,2.36811 17.33722,1.13016 3.24314,-1.23792 4.38715,-6.52957 2.1214,-8.55777 z"
         id="path19701" />
      <path
         style="fill:#ddb374;fill-rule:nonzero"
         inkscape:connector-curvature="0"
         d="m 275.68124,420.96783 c -2.35248,-1.89633 -10.81723,-2.31607 -15.90802,-2.51593 -5.09081,-0.19986 -11.88988,0.008 -14.63677,1.31677 -2.74687,1.30887 -3.73017,4.83823 -1.84449,6.53635 1.88566,1.69815 8.0592,3.06497 13.15854,3.65246 5.09936,0.58747 14.23242,1.37067 17.43756,-0.12759 3.20511,-1.49829 4.14566,-6.9657 1.79318,-8.86206 z"
         id="path19703" />
      <path
         style="fill:#ddb374;fill-rule:nonzero"
         inkscape:connector-curvature="0"
         d="m 275.02585,423.074 c -2.75235,-1.10858 -11.043,0.53241 -16.01584,1.56558 -4.97285,1.03314 -11.49481,2.83036 -13.82123,4.63336 -2.3264,1.80301 -2.38826,5.13947 -0.13722,6.18464 2.25105,1.04519 8.56476,0.78094 13.64351,0.0865 5.07874,-0.69439 14.10715,-2.17459 16.82895,-4.25293 2.7218,-2.07833 2.25418,-7.10858 -0.49817,-8.21719 z"
         id="path19705" />
      <path
         style="fill:#ddb374;fill-rule:nonzero"
         inkscape:connector-curvature="0"
         d="m 278.34134,423.9262 c -2.92624,-0.63034 -11.05148,2.3125 -15.91834,4.12515 -4.86685,1.81266 -11.18862,4.61985 -13.28283,6.75073 -2.09419,2.13086 -1.6948,5.38434 0.71763,6.03452 2.41243,0.65018 8.73653,-0.63296 13.75698,-2.13351 5.02041,-1.50055 13.91116,-4.40696 16.3656,-6.86979 2.4544,-2.46279 1.28717,-7.27679 -1.63904,-7.9071 z"
         id="path19707" />
      <path
         style="fill:#ddb374;fill-rule:nonzero"
         inkscape:connector-curvature="0"
         d="m 272.43622,414.3494 0.71381,20.3732 26.67074,-1.00754 -0.7138,-20.3732 z"
         id="path19709" />
      <path
         style="fill:#ddb374;fill-rule:nonzero"
         inkscape:connector-curvature="0"
         d="m 280.1084,425.76904 c 0.72021,-2.86765 -2.70969,-10.12738 -4.82193,-14.46832 -2.11224,-4.34095 -5.37967,-9.91178 -7.8515,-11.57734 -2.47183,-1.66558 -6.2348,-0.79977 -6.97955,1.58393 -0.74476,2.38367 0.75936,8.18497 2.51101,12.7182 1.75162,4.53323 5.14176,12.52386 7.99875,14.48114 2.857,1.95724 8.42301,0.13003 9.14322,-2.73761 z"
         id="path19711" />
      <path
         style="fill:#9900ff;fill-rule:nonzero"
         inkscape:connector-curvature="0"
         d="m 356.53018,323.79004 c 4.92038,-10.97333 19.70602,-7.27734 24.55643,-0.91077 4.8504,6.36658 4.69772,23.042 4.54593,39.11023 -0.1518,16.06824 -0.15134,44.8692 -5.4567,57.29923 -5.30533,12.42999 -12.1264,14.09753 -26.3753,17.28082 -14.24894,3.18329 -48.02277,2.90946 -59.11814,1.81891 -11.09534,-1.09055 -6.07916,-4.65573 -7.45407,-8.36221 -1.37488,-3.70648 -0.7279,-10.28696 -0.79526,-13.87665 -0.0674,-3.58966 -8.7428,-6.2139 0.39109,-7.66141 9.13385,-1.44751 43.62204,2.27121 54.41205,-1.02362 10.79003,-3.29483 7.77911,-4.79965 10.32809,-18.74542 2.54901,-13.94574 0.0455,-53.95581 4.96588,-64.92911 z"
         id="path19713" />
      <path
         style="fill:#9900ff;fill-rule:nonzero"
         inkscape:connector-curvature="0"
         d="m 259.4272,344.58752 c 1.96146,-4.77167 1.27145,-4.93134 6.35263,-5.11023 5.08115,-0.17892 20.01199,0.89325 24.13431,4.03674 4.12231,3.14347 2.03665,5.2804 0.59958,14.82413 -1.43708,9.54376 -6.94651,30.9895 -9.22205,42.43832 -2.27551,11.44883 -3.16012,19.91733 -4.43112,26.25461 -1.27103,6.33725 0.64383,10.21872 -3.19489,11.76901 -3.83871,1.55033 -14.77761,-0.3609 -19.83735,-2.46719 -5.05976,-2.10629 -9.87491,-2.40201 -10.52112,-10.17059 -0.64621,-7.76859 4.85989,-26.76511 6.64386,-36.44095 1.78398,-9.67584 2.48062,-14.09186 4.05998,-21.61417 1.57935,-7.52231 3.45468,-18.74805 5.41617,-23.51968 z"
         id="path19715" />
      <path
         style="fill:#714821;fill-rule:nonzero"
         inkscape:connector-curvature="0"
         d="m 362.3501,166.29002 c -3.80621,-1.79089 12.53674,15.89589 17.46194,26.86615 4.92521,10.97024 10.29834,26.19421 12.08924,38.95537 1.79092,12.76115 -3.13516,42.31323 -1.34381,37.61154 1.79132,-4.70166 16.79309,-48.58266 12.09185,-65.8215 -4.70123,-17.23885 -36.49301,-35.82065 -40.29922,-37.61156 z"
         id="path19717" />
      <path
         style="fill:#714821;fill-rule:nonzero"
         inkscape:connector-curvature="0"
         d="m 319.1451,105.38366 v 0 c 4.04428,-18.229752 25.68268,-28.91851 48.33069,-23.874016 v 0 c 22.64804,5.044487 37.72934,23.911976 33.68506,42.141726 v 0 c -4.04431,18.22975 -25.68271,28.91851 -48.33072,23.87402 v 0 C 330.18209,142.4809 315.10079,123.6134 319.1451,105.38366 Z"
         id="path19719" />
      <path
         style="fill:#714821;fill-rule:nonzero"
         inkscape:connector-curvature="0"
         d="m 274.7863,170.5832 c 2.3804,-1.00417 -7.84048,8.91281 -10.92072,15.06384 -3.0802,6.15102 -6.44058,14.68711 -7.5606,21.84227 -1.12003,7.15518 1.96075,23.72502 0.84042,21.08881 -1.1203,-2.63623 -10.50238,-27.24031 -7.56224,-36.90613 2.94016,-9.66582 22.82274,-20.08464 25.20314,-21.08879 z"
         id="path19721" />
      <path
         style="fill:#714821;fill-rule:nonzero"
         inkscape:connector-curvature="0"
         d="m 259.03824,183.60507 c 2.3804,-1.28426 -7.84047,11.39894 -10.9207,19.2657 -3.08022,7.86678 -6.44057,18.78389 -7.56061,27.93491 -1.12002,9.15103 1.96074,30.34282 0.84044,26.97123 -1.1203,-3.37155 -10.5024,-34.83864 -7.56226,-47.2006 2.94016,-12.36197 22.82273,-25.68698 25.20313,-26.97124 z"
         id="path19723" />
      <path
         style="fill:#9900ff;fill-rule:nonzero"
         inkscape:connector-curvature="0"
         d="m 336.2056,117.66959 c 3.20624,-0.95588 13.53085,12.91009 12.38953,16.63915 -1.14133,3.72907 -17.17255,8.50846 -19.23749,5.73526 -2.06491,-2.77319 3.64172,-21.41853 6.84796,-22.37441 z"
         id="path19725" />
      <path
         style="fill-rule:nonzero;stroke:#9900ff;stroke-width:8;stroke-linecap:butt;stroke-linejoin:round"
         inkscape:connector-curvature="0"
         d="m 336.2056,117.66959 c 3.20624,-0.95588 13.53085,12.91009 12.38953,16.63915 -1.14133,3.72907 -17.17255,8.50846 -19.23749,5.73526 -2.06491,-2.77319 3.64172,-21.41853 6.84796,-22.37441 z"
         id="path19727" />
      <path
         style="fill:#9900ff;fill-rule:nonzero"
         inkscape:connector-curvature="0"
         d="m 360.5669,151.30849 c -3.16473,0.97089 -13.26669,-12.81451 -12.12235,-16.54248 1.14438,-3.72797 16.96814,-8.58242 18.98853,-5.82533 2.02039,2.75708 -3.70142,21.39692 -6.86618,22.36781 z"
         id="path19729" />
      <path
         style="fill-rule:nonzero;stroke:#9900ff;stroke-width:8;stroke-linecap:butt;stroke-linejoin:round"
         inkscape:connector-curvature="0"
         d="m 360.5669,151.30849 c -3.16473,0.97089 -13.26669,-12.81451 -12.12235,-16.54248 1.14438,-3.72797 16.96814,-8.58242 18.98853,-5.82533 2.02039,2.75708 -3.70142,21.39692 -6.86618,22.36781 z"
         id="path19731" />
      <path
         style="fill:#9900ff;fill-rule:nonzero"
         inkscape:connector-curvature="0"
         d="m 343.1293,129.53397 v 0 c 0.26999,-0.74538 1.09314,-1.13095 1.83862,-0.86121 l 9.81421,3.55133 c 0.35797,0.12955 0.64978,0.39597 0.81125,0.74067 0.16147,0.34471 0.17932,0.73945 0.0497,1.09739 l -1.95532,5.39835 c -0.26996,0.74538 -1.09314,1.13095 -1.83859,0.86121 l -9.81421,-3.55134 c -0.74548,-0.26976 -1.13092,-1.09268 -0.86096,-1.83805 z"
         id="path19733" />
      <path
         style="fill-rule:nonzero;stroke:#9900ff;stroke-width:8;stroke-linecap:butt;stroke-linejoin:round"
         inkscape:connector-curvature="0"
         d="m 343.1293,129.53397 v 0 c 0.26999,-0.74538 1.09314,-1.13095 1.83862,-0.86121 l 9.81421,3.55133 c 0.35797,0.12955 0.64978,0.39597 0.81125,0.74067 0.16147,0.34471 0.17932,0.73945 0.0497,1.09739 l -1.95532,5.39835 c -0.26996,0.74538 -1.09314,1.13095 -1.83859,0.86121 l -9.81421,-3.55134 c -0.74548,-0.26976 -1.13092,-1.09268 -0.86096,-1.83805 z"
         id="path19735" />
      <path
         style="fill:#000000;fill-rule:nonzero"
         inkscape:connector-curvature="0"
         d="m 360.44617,218.73726 v 0 c 0,-10.14693 -8.31012,-18.37264 -18.56116,-18.37264 v 0 c -4.92276,0 -9.64386,1.93569 -13.12475,5.38122 -3.4809,3.44554 -5.43644,8.11869 -5.43644,12.99142 v 0 c 0,10.14691 8.31012,18.37262 18.56119,18.37262 v 0 c 10.25104,0 18.56116,-8.22571 18.56116,-18.37262 z"
         id="path19737" />
      <path
         style="fill:#ffffff;fill-rule:nonzero"
         inkscape:connector-curvature="0"
         d="m 344.43732,210.38084 v 0 c 0,-3.66383 -2.99222,-6.63396 -6.68326,-6.63396 v 0 c -1.77252,0 -3.47244,0.69893 -4.7258,1.94304 -1.25332,1.24411 -1.95746,2.93149 -1.95746,4.69092 v 0 c 0,3.66382 2.99219,6.63394 6.68326,6.63394 v 0 c 3.69104,0 6.68326,-2.97012 6.68326,-6.63394 z"
         id="path19739" />
      <path
         style="fill-rule:nonzero;stroke:#000000;stroke-width:2;stroke-linecap:butt;stroke-linejoin:round"
         inkscape:connector-curvature="0"
         d="m 344.43732,210.38084 v 0 c 0,-3.66383 -2.99222,-6.63396 -6.68326,-6.63396 v 0 c -1.77252,0 -3.47244,0.69893 -4.7258,1.94304 -1.25332,1.24411 -1.95746,2.93149 -1.95746,4.69092 v 0 c 0,3.66382 2.99219,6.63394 6.68326,6.63394 v 0 c 3.69104,0 6.68326,-2.97012 6.68326,-6.63394 z"
         id="path19741" />
      <path
         style="fill:#000000;fill-opacity:0;fill-rule:nonzero"
         inkscape:connector-curvature="0"
         d="M 66.510185,239.37311 202.2267,217.54633 224.39994,355.94003 88.683418,377.76681 Z"
         id="path19743" />
      <path
         style="fill:#8e7cc3;fill-rule:nonzero"
         inkscape:connector-curvature="0"
         d="m 99.70285,260.8627 q 6.81863,-1.09662 11.44647,2.70111 4.64078,3.77982 5.68886,10.32138 0.50921,3.17822 -0.2962,5.46005 -0.78997,2.27936 -1.27228,3.41727 -0.48478,1.12247 -1.6704,3.0065 -1.1702,1.88156 -1.76612,2.70538 -2.19236,3.50193 -4.06834,6.1142 -2.55884,3.78241 -2.18064,6.14295 0.1409,0.87939 1.70228,4.20492 l -9.73209,0.39404 q -3.969566,-1.86206 -4.461472,-4.93228 -0.494377,-3.08563 0.808853,-6.11221 1.303223,-3.02658 3.0206,-5.73996 1.714897,-2.72879 2.988136,-4.65857 1.270763,-1.94522 1.844443,-2.9079 0.58911,-0.96515 1.30895,-2.2995 1.09545,-2.24936 0.92983,-3.28305 -0.16562,-1.03369 -0.74332,-1.47885 -0.56474,-0.4631 -1.50578,-0.31174 -3.054498,0.49125 -10.2846,10.27909 L 80.424843,277.03522 Q 90.385086,262.36124 99.70285,260.8627 Z m 6.99572,44.84882 q 1.93946,2.42593 2.63406,6.76126 0.6946,4.33535 -0.50642,9.08633 l -12.835014,-0.40463 q 0.514229,-4.59305 0.02479,-7.64783 -0.491905,-3.07022 -1.457962,-7.12451 z"
         id="path19745" />
    </g>
  </g>
  <style
     id="style2996"
     type="text/css">
	.st0{fill:#DAF4CC;}
	.st1{fill:#6AAF4E;stroke:#424242;stroke-width:1.779;stroke-miterlimit:10;}
	.st2{fill:#FFFFFF;stroke:#424242;stroke-width:1.779;stroke-miterlimit:10;}
	.st3{fill:#424242;}
	.st4{fill:#FFFFFF;stroke:#424242;stroke-width:1.7265;stroke-miterlimit:10;}
	.st5{fill:none;stroke:#424242;stroke-width:2;stroke-miterlimit:10;}
	.st6{fill:#FFFFFF;stroke:#424242;stroke-width:2;stroke-miterlimit:10;}
	.st7{fill:#87D05F;}
	.st8{fill:#67B145;}
	.st9{fill:none;stroke:#424242;stroke-width:7;stroke-miterlimit:10;}
	.st10{fill:#FFFFFF;}
	.st11{fill:#6AAF4E;stroke:#6AAF4E;stroke-miterlimit:10;}
	.st12{fill:#424242;stroke:#424242;stroke-miterlimit:10;}
	.st13{fill:#6AAF4E;}
	.st14{fill:none;stroke:#6AAF4E;stroke-width:5;stroke-miterlimit:10;}
	.st15{fill:#FFFFFF;stroke:#6AAF4E;stroke-width:5;stroke-miterlimit:10;}
	.st16{fill:#68B245;}
	.st17{fill:none;stroke:#68B245;stroke-width:5;stroke-miterlimit:10;}
	.st18{fill:none;stroke:#6AAF4E;stroke-width:5;stroke-linecap:square;stroke-linejoin:round;stroke-miterlimit:10;}
	.st19{display:none;}
	.st20{display:inline;fill:none;stroke:#6AAF4E;stroke-width:4.1715;stroke-miterlimit:10;}
	.st21{display:inline;fill:none;stroke:#6AAF4E;stroke-width:4;stroke-miterlimit:10;}
	.st22{display:inline;fill:#6AAF4E;}
	.st23{fill:none;stroke:#6AAF4E;stroke-width:4.2239;stroke-miterlimit:10;}
	.st24{fill:#4BA647;}
</style>
</svg>
