<?xml version="1.0" encoding="UTF-8" standalone="no"?>
<svg
   xmlns:dc="http://purl.org/dc/elements/1.1/"
   xmlns:cc="http://creativecommons.org/ns#"
   xmlns:rdf="http://www.w3.org/1999/02/22-rdf-syntax-ns#"
   xmlns:svg="http://www.w3.org/2000/svg"
   xmlns="http://www.w3.org/2000/svg"
   xmlns:sodipodi="http://sodipodi.sourceforge.net/DTD/sodipodi-0.dtd"
   xmlns:inkscape="http://www.inkscape.org/namespaces/inkscape"
   id="svg2"
   height="43"
   width="43"
   version="1.0"
   inkscape:version="0.91 r13725"
   sodipodi:docname="Cc-zero.svg">
  <metadata
     id="metadata3394">
    <rdf:RDF>
      <cc:Work
         rdf:about="">
        <dc:format>image/svg+xml</dc:format>
        <dc:type
           rdf:resource="http://purl.org/dc/dcmitype/StillImage" />
        <dc:title></dc:title>
      </cc:Work>
    </rdf:RDF>
  </metadata>
  <defs
     id="defs3392" />
  <sodipodi:namedview
     pagecolor="#ffffff"
     bordercolor="#666666"
     borderopacity="1"
     objecttolerance="10"
     gridtolerance="10"
     guidetolerance="10"
     inkscape:pageopacity="0"
     inkscape:pageshadow="2"
     inkscape:window-width="1364"
     inkscape:window-height="747"
     id="namedview3390"
     showgrid="false"
     fit-margin-top="0"
     fit-margin-left="0"
     fit-margin-right="0"
     fit-margin-bottom="0"
     inkscape:zoom="1"
     inkscape:cx="-167.5"
     inkscape:cy="32"
     inkscape:window-x="0"
     inkscape:window-y="19"
     inkscape:window-maximized="0"
     inkscape:current-layer="svg2" />
  <g
     id="g3396"
     transform="scale(0.671875,0.671875)"
     style="fill:#4d4d4d">
    <path
       id="path3386"
       d="M 32,13.58 C 21.436,13.58 18.78,23.55 18.78,32 18.778,40.452 21.44,50.42 32,50.42 42.565,50.42 45.22,40.45 45.22,32 45.22,23.55 42.565,13.58 32,13.58 Z m 0,6.95 c 0.43,0 0.82,0.06 1.19,0.15 0.76,0.66 1.13,1.564 0.4,2.83 L 26.556,36.436 C 26.34,34.8 26.31,33.196 26.31,32 26.31,28.277 26.567,20.526 32,20.526 Z m 5.267,5.957 C 37.7,28.47 37.7,30.543 37.7,32 c 0,3.72 -0.26,11.475 -5.7,11.475 -0.425,0 -0.82,-0.045 -1.185,-0.135 C 30.74,43.318 30.68,43.3 30.61,43.27 30.5,43.24 30.38,43.2 30.277,43.16 29.067,42.647 28.305,41.716 29.4,40.07 l 7.867,-13.58 z"
       inkscape:connector-curvature="0"
       style="fill:#4d4d4d" />
    <path
       id="path3388"
       d="M 31.933,0 C 23.06,0 15.574,3.09 9.48,9.3 6.39,12.39 4.036,15.9 2.4,19.83 0.8,23.72 0,27.77 0,32 c 0,4.27 0.8,8.32 2.4,12.17 1.6,3.85 3.92,7.31 6.97,10.4 3.08,3.04 6.545,5.39 10.39,7.03 3.89,1.6 7.94,2.4 12.17,2.4 4.23,0 8.34,-0.83 12.31,-2.46 3.96,-1.64 7.49,-4 10.62,-7.09 3.01,-2.93 5.29,-6.293 6.81,-10.1 C 63.23,40.5 64,36.38 64,32 64,27.66 63.23,23.55 61.67,19.7 60.108,15.812 57.82,12.377 54.81,9.367 48.525,3.12 40.89,0 31.93,0 Z m 0.134,5.76 c 7.238,0 13.413,2.57 18.553,7.71 2.48,2.48 4.38,5.308 5.671,8.47 1.299,3.16 1.949,6.54 1.949,10.06 0,7.35 -2.515,13.45 -7.51,18.33 -2.59,2.52 -5.5,4.448 -8.73,5.78 -3.21,1.34 -6.5,1.996 -9.933,1.996 C 29,58.106 25.279,57.453 22.118,56.16 18.96,54.824 16.117,52.92 13.6,50.44 11.087,47.93 9.15,45.09 7.776,41.93 6.44,38.73 5.76,35.43 5.76,32 c 0,-3.47 0.68,-6.79 2.02,-9.95 1.37,-3.2 3.31,-6.075 5.82,-8.63 4.99,-5.03 11.15,-7.66 18.467,-7.66 z"
       inkscape:connector-curvature="0"
       style="fill:#4d4d4d" />
  </g>
</svg>
