<?xml version="1.0" encoding="UTF-8" standalone="no"?>
<svg xmlns:inkscape="http://www.inkscape.org/namespaces/inkscape" xmlns:rdf="http://www.w3.org/1999/02/22-rdf-syntax-ns#" xmlns="http://www.w3.org/2000/svg" xmlns:cc="http://creativecommons.org/ns#" xmlns:dc="http://purl.org/dc/elements/1.1/" xmlns:sodipodi="http://sodipodi.sourceforge.net/DTD/sodipodi-0.dtd" xmlns:svg="http://www.w3.org/2000/svg" xmlns:ns1="http://sozi.baierouge.fr" xmlns:xlink="http://www.w3.org/1999/xlink" id="svg3907" sodipodi:docname="FDroid-Logo.svg" inkscape:export-filename="./FDroid-Logo.png" inkscape:export-xdpi="90" version="1.1" inkscape:export-ydpi="90" inkscape:version="0.48.3.1 r9886" viewBox="0 0 35.999999 35.999999">
  <sodipodi:namedview id="namedview3935" fit-margin-left="0" inkscape:showpageshadow="false" inkscape:zoom="1" borderopacity="0.0627451" inkscape:current-layer="svg3907" inkscape:cx="-27.201371" inkscape:cy="-34.984492" borderlayer="false" inkscape:window-maximized="0" showgrid="false" fit-margin-right="0" bordercolor="#666666" inkscape:window-x="0" guidetolerance="10" objecttolerance="10" inkscape:window-y="308" fit-margin-bottom="0" inkscape:window-width="1454" inkscape:pageopacity="0" inkscape:pageshadow="2" pagecolor="#ffffff" gridtolerance="10" inkscape:window-height="873" showborder="true" fit-margin-top="0">
    <inkscape:grid id="grid4618" originy="-63.960253px" enabled="true" originx="-47.987233px" visible="true" snapvisiblegridlinesonly="true" type="xygrid" empspacing="4"/>
  </sodipodi:namedview>
  <rect id="rect3915" style="stroke:#604f2a;stroke-width:1.1389;fill:#f3cd7f" rx="4.7556" height="26.03" width="34.861" y="9.4018" x=".58346"/>
  <path id="rect4615" sodipodi:nodetypes="csccsccc" style="fill:#604f2a" inkscape:connector-curvature="0" d="m1.0759 11.994c-0.00472 0.0603-0.00572 0.11958-0.00572 0.18086v1.4986c2.3986 1.9162 31.351 1.9162 33.939 0v-1.4986c0-0.0613-0.0011-0.12051-0.0057-0.18086-2.5818 1.8043-31.535 1.8043-33.927 0z"/>
  <path id="path4342" sodipodi:nodetypes="ccscscssscscscc" inkscape:connector-curvature="0" style="stroke-width:.74249;block-progression:tb;text-indent:0;color:#000000;stroke:#604f2a;text-transform:none;fill:#f3cd7f" d="m18.26 0.37218c-0.25919-0.00049-0.52052 0.0103-0.77984 0.0354-2.0745 0.20176-3.9352 1.4147-5.1354 2.8074s-1.75 3.5198-1.121 5.7696c0.06459 0.23543 0.52499 0.4182 0.96605 0.38351 0.44106-0.0346 0.7831-0.28057 0.71769-0.51594-0.58694-2.0994-0.05419-3.8137 0.98366-5.018 1.0379-1.2043 2.5724-1.8744 3.8948-2.003 1.3224-0.12862 2.5925 0.17504 3.6112 1.2793s1.5979 3.014 1.0235 5.8339c-0.04823 0.23637 0.31052 0.47488 0.75335 0.50087 0.44283 0.026 0.8901-0.16523 0.93925-0.40156 0.59608-2.9264 0.05457-5.2272-1.1875-6.5736-1.0868-1.1781-2.8514-2.0946-4.6657-2.0979z"/>
  <path id="path4221" sodipodi:nodetypes="ccscscssscscscc" d="m18.433 2.5128c-0.33487-0.00063-0.67251 0.0132-1.0075 0.0458-2.6803 0.26068-5.0843 1.8278-6.6349 3.6271-1.5506 1.7994-2.261 4.5476-1.4483 7.4543 0.083453 0.30416 0.67828 0.5403 1.2481 0.49548 0.56985-0.0448 1.0118-0.36249 0.92726-0.66658-0.75833-2.7124-0.07001-4.9273 1.2709-6.4833s3.3235-2.4217 5.032-2.5878c1.7085-0.16617 3.3495 0.22615 4.6656 1.6529 1.3162 1.4268 2.0645 3.894 1.3224 7.5374-0.06231 0.30538 0.4012 0.61354 0.97333 0.64712 0.57214 0.0335 1.15-0.21349 1.2135-0.51881 0.77014-3.7809 0.0705-6.7535-1.5342-8.4931-1.4041-1.5221-3.684-2.7062-6.0281-2.7105z" style="stroke-width:.95929;block-progression:tb;text-indent:0;color:#000000;stroke:#604f2a;text-transform:none;fill:#f3cd7f" inkscape:connector-curvature="0"/>
  <circle id="circle4336" sodipodi:rx="440" sodipodi:cy="490" style="stroke:#604f2a;stroke-width:125.71;fill:none" d="M 930,490 C 930,733.00529 733.00529,930 490,930 246.99471,930 50,733.00529 50,490 50,246.99471 246.99471,50 490,50 733.00529,50 930,246.99471 930,490 z" sodipodi:ry="440" transform="matrix(.014666 0 0 .014666 10.814 17.677)" cy="490" cx="490" r="440" sodipodi:cx="490"/>
  <path id="path4338" sodipodi:nodetypes="sccsssccsss" style="fill:#604f2a" inkscape:connector-curvature="0" d="m17.945 20.621c-2.0337 0-3.7389 1.4236-4.1769 3.3322h2.0494c0.37546-0.81348 1.1889-1.3767 2.1276-1.3767 1.2984 0 2.3466 1.0481 2.3466 2.3466 0 1.2984-1.0481 2.3466-2.3466 2.3466-0.93864 0-1.7521-0.56318-2.1276-1.361h-2.0494c0.43803 1.8929 2.1432 3.3165 4.1769 3.3165 2.3779 0 4.3021-1.9242 4.3021-4.3021s-1.9242-4.3021-4.3021-4.3021z"/>
  <metadata>
    <rdf:RDF>
      <cc:Work>
        <dc:format>image/svg+xml</dc:format>
        <dc:type rdf:resource="http://purl.org/dc/dcmitype/StillImage"/>
        <cc:license rdf:resource="http://creativecommons.org/licenses/publicdomain/"/>
        <dc:publisher>
          <cc:Agent rdf:about="http://openclipart.org/">
            <dc:title>Openclipart</dc:title>
          </cc:Agent>
        </dc:publisher>
        <dc:title>Free, Open Source Software Store Logo/Icon</dc:title>
        <dc:date>2012-07-01T23:23:02</dc:date>
        <dc:description/>
        <dc:source>https://openclipart.org/detail/171002/free-open-source-software-store-logoicon-by-qubodup-171002</dc:source>
        <dc:creator>
          <cc:Agent>
            <dc:title>qubodup</dc:title>
          </cc:Agent>
        </dc:creator>
        <dc:subject>
          <rdf:Bag>
            <rdf:li>apps</rdf:li>
            <rdf:li>bag</rdf:li>
            <rdf:li>copyleft</rdf:li>
            <rdf:li>copyright</rdf:li>
            <rdf:li>dl</rdf:li>
            <rdf:li>download</rdf:li>
            <rdf:li>foss</rdf:li>
            <rdf:li>free open source software</rdf:li>
            <rdf:li>shopping</rdf:li>
            <rdf:li>software</rdf:li>
            <rdf:li>store</rdf:li>
          </rdf:Bag>
        </dc:subject>
      </cc:Work>
      <cc:License rdf:about="http://creativecommons.org/licenses/publicdomain/">
        <cc:permits rdf:resource="http://creativecommons.org/ns#Reproduction"/>
        <cc:permits rdf:resource="http://creativecommons.org/ns#Distribution"/>
        <cc:permits rdf:resource="http://creativecommons.org/ns#DerivativeWorks"/>
      </cc:License>
    </rdf:RDF>
  </metadata>
</svg>