<?xml version="1.0" encoding="UTF-8" standalone="no"?>
<!-- Created with Inkscape (http://www.inkscape.org/) -->

<svg
   xmlns:dc="http://purl.org/dc/elements/1.1/"
   xmlns:cc="http://creativecommons.org/ns#"
   xmlns:rdf="http://www.w3.org/1999/02/22-rdf-syntax-ns#"
   xmlns:svg="http://www.w3.org/2000/svg"
   xmlns="http://www.w3.org/2000/svg"
   xmlns:sodipodi="http://sodipodi.sourceforge.net/DTD/sodipodi-0.dtd"
   xmlns:inkscape="http://www.inkscape.org/namespaces/inkscape"
   id="svg1"
   sodipodi:docname="hacker.svg"
   viewBox="0 0 96.233 96.02"
   sodipodi:version="0.32"
   version="1.1"
   inkscape:version="0.91pre4 r13712">
  <defs
     id="defs18" />
  <sodipodi:namedview
     id="base"
     bordercolor="#666666"
     inkscape:pageshadow="2"
     inkscape:window-y="0"
     pagecolor="#ffffff"
     inkscape:window-height="983"
     inkscape:window-maximized="0"
     inkscape:zoom="1.7411011"
     inkscape:window-x="0"
     showgrid="false"
     borderopacity="1.0"
     inkscape:current-layer="svg1"
     inkscape:cx="75.414269"
     inkscape:cy="41.273332"
     inkscape:window-width="1754"
     showborder="false"
     inkscape:pageopacity="0.0"
     showguides="false" />
  <g
     id="g922"
     transform="translate(-2.411,-2.6242)"
     style="fill:#4d4d4d;opacity:0.928">
    <rect
       id="rect826"
       style="stroke-linejoin:round;stroke:#000000;stroke-width:1.25;fill-opacity:0;fill:#4d4d4d"
       height="92.645"
       width="92.682"
       y="3.6148"
       x="3.1957" />
    <path
       id="path828"
       inkscape:connector-curvature="0"
       sodipodi:nodetypes="cc"
       style="stroke-linejoin:round;stroke:#000000;stroke-width:1.25;fill:#4d4d4d"
       d="m34.891 3.2492-0.708 92.913" />
    <path
       id="path829"
       inkscape:connector-curvature="0"
       sodipodi:nodetypes="cc"
       style="stroke-linejoin:round;stroke:#000000;stroke-width:1.25;fill:#4d4d4d"
       d="m66.075 3.3777-0.576 93.001" />
    <path
       id="path830"
       inkscape:connector-curvature="0"
       sodipodi:nodetypes="cc"
       style="stroke-linejoin:round;stroke:#000000;stroke-width:1.25;fill:#4d4d4d"
       d="m95.997 65.207-92.92-0.576" />
    <path
       id="path831"
       inkscape:connector-curvature="0"
       sodipodi:nodetypes="cc"
       style="stroke-linejoin:round;stroke:#000000;stroke-width:1.25;fill:#4d4d4d"
       d="m96.037 33.941-93.001-0.543" />
    <path
       id="path832"
       sodipodi:rx="15.234634"
       sodipodi:ry="14.69054"
       style="stroke-width:1pt;fill-rule:evenodd;fill:#4d4d4d"
       sodipodi:type="arc"
       d="M 25.028328,7.5040026 A 15.234634,14.69054 0 0 1 9.7936935,22.194543 15.234634,14.69054 0 0 1 -5.4409409,7.5040026 15.234634,14.69054 0 0 1 9.7936935,-7.1865377 15.234634,14.69054 0 0 1 25.028328,7.5040026 Z"
       transform="matrix(.8205 0 0 .85089 42.126 12.134)"
       sodipodi:cy="7.5040026"
       sodipodi:cx="9.7936935" />
    <path
       id="path833"
       sodipodi:rx="15.234634"
       sodipodi:ry="14.69054"
       style="stroke-width:1pt;fill-rule:evenodd;fill:#4d4d4d"
       sodipodi:type="arc"
       d="M 25.028328,7.5040026 A 15.234634,14.69054 0 0 1 9.7936935,22.194543 15.234634,14.69054 0 0 1 -5.4409409,7.5040026 15.234634,14.69054 0 0 1 9.7936935,-7.1865377 15.234634,14.69054 0 0 1 25.028328,7.5040026 Z"
       transform="matrix(.8205 0 0 .85089 73.376 43.558)"
       sodipodi:cy="7.5040026"
       sodipodi:cx="9.7936935" />
    <path
       id="path834"
       sodipodi:rx="15.234634"
       sodipodi:ry="14.69054"
       style="stroke-width:1pt;fill-rule:evenodd;fill:#4d4d4d"
       sodipodi:type="arc"
       d="M 25.028328,7.5040026 A 15.234634,14.69054 0 0 1 9.7936935,22.194543 15.234634,14.69054 0 0 1 -5.4409409,7.5040026 15.234634,14.69054 0 0 1 9.7936935,-7.1865377 15.234634,14.69054 0 0 1 25.028328,7.5040026 Z"
       transform="matrix(.8205 0 0 .85089 73.376 74.159)"
       sodipodi:cy="7.5040026"
       sodipodi:cx="9.7936935" />
    <path
       id="path835"
       sodipodi:rx="15.234634"
       sodipodi:ry="14.69054"
       style="stroke-width:1pt;fill-rule:evenodd;fill:#4d4d4d"
       sodipodi:type="arc"
       d="M 25.028328,7.5040026 A 15.234634,14.69054 0 0 1 9.7936935,22.194543 15.234634,14.69054 0 0 1 -5.4409409,7.5040026 15.234634,14.69054 0 0 1 9.7936935,-7.1865377 15.234634,14.69054 0 0 1 25.028328,7.5040026 Z"
       transform="matrix(.8205 0 0 .85089 42.126 74.159)"
       sodipodi:cy="7.5040026"
       sodipodi:cx="9.7936935" />
    <path
       id="path836"
       sodipodi:rx="15.234634"
       sodipodi:ry="14.69054"
       style="stroke-width:1pt;fill-rule:evenodd;fill:#4d4d4d"
       sodipodi:type="arc"
       d="M 25.028328,7.5040026 A 15.234634,14.69054 0 0 1 9.7936935,22.194543 15.234634,14.69054 0 0 1 -5.4409409,7.5040026 15.234634,14.69054 0 0 1 9.7936935,-7.1865377 15.234634,14.69054 0 0 1 25.028328,7.5040026 Z"
       transform="matrix(.8205 0 0 .85089 10.876 74.159)"
       sodipodi:cy="7.5040026"
       sodipodi:cx="9.7936935" />
  </g>
  <path
     id="path979"
     style="fill-rule:evenodd;fill:#4d4d4d;fill-opacity:0.25;opacity:0.928"
     inkscape:connector-curvature="0"
     d="m2.8584 2.1144c-0.3206 0.0322-0.5641 0.3028-0.5625 0.625v92.656c0 0.345 0.2798 0.625 0.625 0.625h92.687c0.346 0 0.625-0.28 0.625-0.625v-92.656c0-0.3456-0.279-0.6254-0.625-0.6254h-92.687c-0.021-0.001-0.0418-0.001-0.0626 0zm0.6875 1.25h30.437l-0.218 28.75-30.219-0.188-0.0001-28.562zm31.687 0h29.938l-0.188 28.906-29.968-0.156 0.218-28.75zm31.188 0h28.562v29.093l-28.75-0.156 0.188-28.937zm-16.531 1.7812c-6.9 0-12.5 5.6002-12.5 12.5 0 6.9 5.6 12.5 12.5 12.5s12.5-5.6 12.5-12.5-5.6-12.5-12.5-12.5zm-46.344 28.031 30.219 0.188-0.219 29.968-30-0.187-0.0001-29.969zm31.469 0.188 29.968 0.156-0.187 30-30-0.188 0.219-29.968zm31.218 0.187 28.75 0.156v30l-28.937-0.187 0.187-29.969zm14.907 3.031c-6.9 0-12.5 5.6-12.5 12.5s5.6 12.5 12.5 12.5 12.5-5.6 12.5-12.5-5.6-12.5-12.5-12.5zm-77.594 27.813 29.969 0.187-0.219 30.188h-29.75l-0.0001-30.375zm31.219 0.187 30.031 0.188-0.188 30h-30.062l0.219-30.188zm31.281 0.188 28.937 0.187v29.813h-29.125l0.188-30zm-47.406 2.406c-6.9 0-12.5 5.6-12.5 12.5-0.0004 6.9 5.6 12.5 12.5 12.5s12.5-5.6 12.5-12.5-5.6-12.5-12.5-12.5zm31.25 0c-6.9 0-12.5 5.6-12.5 12.5s5.6 12.5 12.5 12.5 12.5-5.6 12.5-12.5-5.6-12.5-12.5-12.5zm31.25 0c-6.9 0-12.5 5.6-12.5 12.5s5.6 12.5 12.5 12.5 12.5-5.6 12.5-12.5-5.6-12.5-12.5-12.5z" />
  <metadata
     id="metadata16">
    <rdf:RDF>
      <cc:Work>
        <dc:format>image/svg+xml</dc:format>
        <dc:type
           rdf:resource="http://purl.org/dc/dcmitype/StillImage" />
        <cc:license
           rdf:resource="http://creativecommons.org/licenses/publicdomain/" />
        <dc:publisher>
          <cc:Agent
             rdf:about="http://openclipart.org/">
            <dc:title>Openclipart</dc:title>
          </cc:Agent>
        </dc:publisher>
      </cc:Work>
      <cc:License
         rdf:about="http://creativecommons.org/licenses/publicdomain/">
        <cc:permits
           rdf:resource="http://creativecommons.org/ns#Reproduction" />
        <cc:permits
           rdf:resource="http://creativecommons.org/ns#Distribution" />
        <cc:permits
           rdf:resource="http://creativecommons.org/ns#DerivativeWorks" />
      </cc:License>
    </rdf:RDF>
  </metadata>
  <metadata
     id="metadata20">
    <rdf:RDF>
      <cc:Work
         rdf:about="">
        <dc:title>Clipart by Nicu Buculei - antenna</dc:title>
        <dc:rights>
          <cc:Agent>
            <dc:title>Nicu Buculei</dc:title>
          </cc:Agent>
        </dc:rights>
        <dc:type
           rdf:resource="http://purl.org/dc/dcmitype/StillImage" />
        <cc:license
           rdf:resource="http://web.resource.org/cc/PublicDomain" />
      </cc:Work>
      <cc:License
         rdf:about="http://web.resource.org/cc/PublicDomain">
        <cc:permits
           rdf:resource="http://web.resource.org/cc/Reproduction" />
        <cc:permits
           rdf:resource="http://web.resource.org/cc/Distribution" />
        <cc:permits
           rdf:resource="http://web.resource.org/cc/DerivativeWorks" />
      </cc:License>
    </rdf:RDF>
  </metadata>
</svg>
