<?xml version="1.0" encoding="UTF-8" standalone="no"?>
<!-- Created with Inkscape (http://www.inkscape.org/) -->
<svg xmlns:dc="http://purl.org/dc/elements/1.1/" xmlns:cc="http://creativecommons.org/ns#" xmlns:rdf="http://www.w3.org/1999/02/22-rdf-syntax-ns#" xmlns:svg="http://www.w3.org/2000/svg" xmlns="http://www.w3.org/2000/svg" xmlns:sodipodi="http://sodipodi.sourceforge.net/DTD/sodipodi-0.dtd" xmlns:inkscape="http://www.inkscape.org/namespaces/inkscape" id="svg17624" version="1.1" inkscape:version="0.48.2 r9819" width="360.62756" height="360.61264" xml:space="preserve" sodipodi:docname="AJAX.svg"><metadata id="metadata17630"><rdf:RDF><cc:Work rdf:about=""><dc:format>image/svg+xml</dc:format><dc:type rdf:resource="http://purl.org/dc/dcmitype/StillImage"/><dc:title/></cc:Work></rdf:RDF></metadata><defs id="defs17628"><inkscape:perspective sodipodi:type="inkscape:persp3d" inkscape:vp_x="0 : 0.5 : 1" inkscape:vp_y="0 : 1000 : 0" inkscape:vp_z="1 : 0.5 : 1" inkscape:persp3d-origin="0.5 : 0.33333333 : 1" id="perspective17632"/><clipPath clipPathUnits="userSpaceOnUse" id="clipPath17642"><path d="m -2,710 501,0 0,-711 -501,0 0,711 z" id="path17644" inkscape:connector-curvature="0"/></clipPath><clipPath clipPathUnits="userSpaceOnUse" id="clipPath17648"><path d="m 0,708.06 498,0 0,-708 -498,0 0,708 z" id="path17650" inkscape:connector-curvature="0"/></clipPath><clipPath clipPathUnits="userSpaceOnUse" id="clipPath17798"><path d="m -2,710 501,0 0,-711 -501,0 0,711 z" id="path17800" inkscape:connector-curvature="0"/></clipPath><clipPath clipPathUnits="userSpaceOnUse" id="clipPath17804"><path d="m 0,708.06 498,0 0,-708 -498,0 0,708 z" id="path17806" inkscape:connector-curvature="0"/></clipPath><clipPath id="Clip0"><path inkscape:connector-curvature="0" d="m 0,0 212.597,0 0,269.292 L 0,269.292 0,0 z" transform="translate(0.923828,0.879883)" id="path7"/></clipPath><clipPath id="Clip0-8"><path inkscape:connector-curvature="0" d="m 0,0 170.079,0 0,113.386 L 0,113.386 0,0 z" transform="translate(0.0986328,0.822266)" id="path7-8"/></clipPath><clipPath id="Clip0-1"><path inkscape:connector-curvature="0" d="m 0,0 287.009,0 0,159.449 L 0,159.449 0,0 z" transform="translate(0.396484,0.267578)" id="path7-7"/></clipPath><clipPath id="Clip0-9"><path inkscape:connector-curvature="0" d="m 0,0 170.079,0 0,170.079 L 0,170.079 0,0 z" transform="translate(0.460938,0.775391)" id="path7-4"/></clipPath><clipPath id="Clip0-4"><path inkscape:connector-curvature="0" d="m 0,0 340.157,0 0,226.771 L 0,226.771 0,0 z" transform="translate(0.921875,0.25293)" id="path7-5"/></clipPath><clipPath id="Clip0-5"><path inkscape:connector-curvature="0" d="m 0,0 255.119,0 0,170.079 L 0,170.079 0,0 z" transform="translate(0.147461,0.0595703)" id="path7-1"/></clipPath><clipPath id="Clip0-0"><path inkscape:connector-curvature="0" d="m 0,0 170.079,0 0,113.386 L 0,113.386 0,0 z" transform="translate(0.0673828,0.207031)" id="path7-9"/></clipPath></defs><sodipodi:namedview pagecolor="#ffffff" bordercolor="#666666" borderopacity="1" objecttolerance="10" gridtolerance="10" guidetolerance="10" inkscape:pageopacity="0" inkscape:pageshadow="2" inkscape:window-width="1280" inkscape:window-height="1004" id="namedview17626" showgrid="false" inkscape:zoom="1.4142136" inkscape:cx="224.44647" inkscape:cy="204.82848" inkscape:window-x="-8" inkscape:window-y="-8" inkscape:window-maximized="1" inkscape:current-layer="g17634" fit-margin-top="0" fit-margin-left="0" fit-margin-right="0" fit-margin-bottom="0" showguides="true" inkscape:guide-bbox="true"/><g id="g17634" inkscape:groupmode="layer" inkscape:label="GG1999P002" transform="matrix(1.25,0,0,-1.25,2887.4725,-1111.2806)"><path inkscape:connector-curvature="0" style="fill:#ffdb00;fill-rule:nonzero;stroke:none" d="m -2025.7756,-1022.8881 c 5.733,-5.733 5.733,-15.029 -8e-4,-20.763 l -129.5712,-129.563 c -5.734,-5.734 -15.031,-5.734 -20.764,0 l -129.5656,129.563 c -5.7344,5.734 -5.7344,15.03 0,20.763 l 129.5716,129.56357 c 5.734,5.7334 15.03,5.7334 20.763,0 l 129.567,-129.56357 z" id="path11"/><path inkscape:connector-curvature="0" style="fill:#000000;fill-rule:nonzero;stroke:none" d="m -2303.1899,-1041.4228 c -4.0957,4.095 -4.0966,10.735 -9e-4,14.831 l 130.2773,130.26825 c 4.096,4.0957 10.737,4.0957 14.833,0 l 130.297,-130.27425 c 4.097,-4.096 4.097,-10.735 8e-4,-14.831 l -130.277,-130.27 c -4.096,-4.094 -10.737,-4.094 -14.833,8e-4 l -130.2972,130.2752 z" id="path13"/><path inkscape:connector-curvature="0" style="fill:#ffdb00;fill-rule:nonzero;stroke:none" d="m -2299.3814,-1037.4538 c -1.9932,1.993 -1.9932,5.223 0,7.215 l 130.2778,130.26878 c 1.993,1.99217 5.223,1.99217 7.216,0 l 130.297,-130.27478 c 1.993,-1.992 1.994,-5.222 0,-7.214 l -130.277,-130.27 c -1.992,-1.992 -5.223,-1.992 -7.216,0 l -130.2968,130.275 z" id="path15"/><path inkscape:connector-curvature="0" style="fill:#000000;fill-rule:nonzero;stroke:none" d="m -2181.7427,-1066.565 -29.013,-29.015 -22.6461,22.651 35.0371,35.04 c 10.24,10.2681 16.595,24.4281 16.612,40.07108 l 0.01,0.432 0,5.921 -15.22,-5.928 c -3.274,-1.356 -7.027,0.198 -8.383,3.473 -0.852,2.056 -0.558,4.298 0.592,6.0192 l 39.027,60.9278 39.0269,-60.9278 c 1.15,-1.7212 1.443,-3.9632 0.592,-6.0192 -1.357,-3.275 -5.11,-4.829 -8.3839,-3.473 l -15.219,5.928 0,-133.93408 -32.032,0 0,58.834 z" id="path17"/></g></svg>